<svg xmlns="http://www.w3.org/2000/svg" xml:space="preserve" width="131" height="78" version="1.1" style="shape-rendering:geometricPrecision; text-rendering:geometricPrecision; image-rendering:optimizeQuality; fill-rule:evenodd; clip-rule:evenodd" viewBox="0 0 31000 18500" xmlns:xlink="http://www.w3.org/1999/xlink">
 <defs>
  <style type="text/css">
   <![CDATA[
    .fil2 {fill:#52372F}
    .fil1 {fill:#AB5234}
    .fil3 {fill:#F3D49B}
    .fil0 {fill:white}
   ]]>
  </style>
 </defs>
 <g id="Camada_x0020_1">
  <metadata id="CorelCorpID_0Corel-Layer"/>
  <path class="fil0" d="M18216.45 2207.39l0.13 0.01 0.12 0.01 0.13 0.01 0.13 0.01 0.13 0.02 0.12 0 0.13 0.01 0.13 0.01 0.06 0 0.07 0.01 0.13 0.01 0.12 0.01 0.14 0.01 0.13 0.01 0.13 0.01 0.12 0.01 0.14 0.01 0.13 0.02 0.13 0.01 0.13 0.01 0.13 0.01 0.14 0.01 0.14 0.02 0.13 0.01 0.14 0.01 0.13 0.01 0.48 0.05 0.23 0.02c350.56,33.53 646.73,122.61 962.21,274.12 191.05,91.76 375.5,196.96 564.26,293.31 75.39,38.48 150.35,84.04 224.95,124.78 119.28,65.15 240.75,127.55 365.19,182.54 116.81,51.62 248.38,103.22 374.35,126.95 54.19,10.21 160.41,24.01 207.74,-13.52 12.44,-9.88 20.57,-23.97 25.87,-39.4 -26.22,-13.04 -55.33,-23.29 -79.42,-31.65 -83.1,-28.83 -173.76,-54.43 -239.61,-115.25 -27.96,-25.81 -39.21,-61.45 -31.06,-98.38 46.87,-212.3 177.63,-259.87 373.37,-299.61 488.37,-99.15 905.73,57.93 1319.3,299.61 114.95,67.16 230.36,150.69 306.81,260.7 53.07,76.39 76.48,148.71 99.74,236.79 24.77,93.77 44.2,154.53 113.76,227.23 126.21,131.89 360.43,238.44 526.52,307.7 508.73,212.12 1053.51,337.39 1570.8,529.08 611.24,226.51 1215.23,482 1797.44,773.95 588.01,294.87 1171.96,634.9 1690.97,1037.96 818.77,635.86 1550.61,1379.7 1908.48,2365.57 365.87,1007.88 209.8,2060.77 -347.31,2969.03 -1023.16,1668.1 -3251.97,2797.49 -5054.97,3446.23 -223.71,80.48 -451.22,151.4 -677.99,222.95 -297.12,93.75 -600.66,187.98 -887.76,308.57 -185.87,78.06 -469,201.15 -570.47,383.87 -35.87,64.58 -65.18,129.8 -85.22,200.79 -13.98,49.55 -22.72,101.09 -41.55,149.11 -56.38,143.65 -214.13,234.07 -342.67,307.39 -248.52,141.72 -511.16,251.16 -794.31,303.62 -273.11,50.6 -778.64,37.3 -897.01,-264.9 -12.73,-32.52 -9.06,-66.08 10.42,-95.16 51.8,-77.33 123.34,-115.8 211.78,-139.04 22.9,-6.01 94.28,-19.35 111.51,-32.4 7.61,-5.75 9.29,-26.65 8.73,-48.57 -12.36,-3.95 -24.89,-7.39 -37.58,-10.31 -165.86,-38.12 -352.12,14.76 -505.76,75.82 -211.02,83.86 -415.52,202.99 -612.39,315.2 -187.57,106.91 -377.97,216.8 -576.49,302.68 -402.44,174.11 -790.2,300.07 -1232.45,313.98 -165.53,5.2 -330.78,-4.22 -495.7,-17.59 -151.3,-12.27 -302.37,-27.25 -453.58,-40.75 -1.77,49.4 -11.12,98.41 -28.99,146.33 -88.09,236.17 -350.55,366.89 -578.56,438.11 -290.6,90.79 -623.78,120.04 -927.53,114.1 -307.67,-6.02 -644.94,-49.32 -935.4,-152.62 -221.69,-78.84 -485.21,-220 -554.36,-460.97 -8.31,-28.98 -13.41,-58.34 -15.49,-87.85 -260.78,1.09 -522.48,-3.85 -782.42,-21.25 -211.01,-14.12 -423.29,-36.61 -630.99,-76.66 -294.26,-56.73 -535.17,-143.02 -799.58,-279.89 -185.43,-95.98 -362.73,-197.78 -554.13,-283.45 -282.43,-126.41 -577.15,-216.89 -878.2,-288.87 -48.29,-11.54 -189.09,-44.83 -234.62,-14.53 -17.52,11.65 -27.89,40.17 -34.08,69.78l277.58 108.67c47.94,18.77 74.82,67.67 64.61,117.59 -8.67,42.41 -24.73,82.55 -48.15,119.14 -115.54,180.47 -368.44,222.45 -567.57,221.59 -257.16,-1.11 -533.33,-69.2 -768.71,-169.31 -120.3,-51.16 -236.91,-113.52 -344.11,-187.97 -125.93,-87.45 -262.72,-186.25 -318.38,-333.98 -16.64,-44.18 -27.3,-90.44 -43.14,-135.04 -23.12,-65.09 -55.21,-125.47 -91.94,-184.03 -147.79,-235.67 -849.48,-471.56 -1110.7,-558.08 -197.94,-65.55 -397.42,-126.3 -596.8,-187.43 -160.88,-49.32 -324.54,-98.22 -482.5,-155.93 -405.59,-148.16 -805.43,-312.53 -1197.13,-493.5 -1019.04,-470.8 -2039.39,-1077.51 -2866.46,-1835.58 -2.11,-1.93 -3.84,-3.65 -5.79,-5.74l-521.39 -558.2c-2.32,-2.46 -4.18,-4.66 -6.25,-7.33 -422,-544.66 -755.98,-1108.5 -890.87,-1790.04 -68.02,-343.68 -78.99,-686.12 -25.13,-1032.51 71.38,-459.02 250.22,-887.35 470.18,-1295.04 926.22,-1716.6 3251.37,-2879.16 5030.57,-3537.78 158.1,-58.52 320.28,-109.26 481.21,-159.65 185.03,-57.95 370.36,-114.97 554.42,-175.91 317.07,-104.98 947.13,-318.61 1160.35,-578.49 73.56,-89.67 83.78,-137.77 111.58,-243.93 19.1,-72.89 44.94,-130.84 91.91,-190.98 68.59,-87.82 168.23,-161.93 260.75,-223.34 135.82,-90.12 286.88,-162.89 440.12,-219.14 213.47,-78.37 457.22,-133.94 685.76,-133.62 189.24,0.26 409.48,40.97 533.44,196.28 30.83,38.64 53.65,82.15 68.26,129.15 12.87,41.4 -0.21,84.01 -34.17,111.4 -6.25,5.04 -12.73,9.8 -19.38,14.3 -45.93,30.99 -97.1,46.75 -150.42,59.99 -31.14,7.75 -73.79,15.82 -102.16,30.22 -11.96,6.06 -30.46,16.68 -37.82,28.43 -5.9,9.41 -5.71,24.85 -3.3,40.18 19.82,8.46 40.35,15.21 61.49,20.26 201.53,48.16 449.07,-58.84 623.11,-151.45 121.19,-64.49 237.05,-138.41 351.51,-213.81 90.18,-59.4 183.96,-125.75 278.87,-176.91 452.48,-243.93 1025.23,-484.27 1554.46,-486.67 132.07,-243.13 282.13,-482.6 463.8,-692.04 62.1,-71.59 127.64,-138.88 196.33,-204.28 53.79,-51.22 109.24,-100.92 162.14,-153.01 2.65,-2.6 5.02,-4.71 7.91,-7.04 1034.84,-831.51 2388.42,-823.33 3433.75,-14.58 86.6,67 169.26,150.16 243.67,230 96.4,103.44 187.65,213.12 271.84,326.46 112.04,150.84 238.79,343.83 303.85,529.03l188.28 14.08zm-5455.45 1747.4c-1040.45,58.9 -2088.15,212.8 -3107.42,424.43 -779.9,161.92 -1554.75,361.02 -2314.06,600.2 -684.78,215.71 -1367.45,466.19 -2018.32,768.11 -776.57,360.23 -1555.37,820.31 -2206.02,1373.93 -565.94,481.55 -1088.7,1083.77 -1330.88,1792.2 -229.35,670.87 -169.73,1339.43 114.97,1984.55 663.9,1504.36 2528.74,2546.87 3991.83,3154.39 480.71,199.61 972.12,375.58 1469.45,530.34 1272.49,395.97 2591.19,669.89 3911.9,851.94 1399.05,192.85 2816.68,284.25 4229.13,284.25 1412.46,0 2830.09,-91.4 4229.14,-284.25 1320.71,-182.05 2639.41,-455.97 3911.9,-851.94 497.33,-154.76 988.74,-330.73 1469.45,-530.34 1463.09,-607.52 3327.93,-1650.03 3991.83,-3154.39 284.4,-644.44 344.19,-1312.4 115.54,-1982.71 -494.88,-1450.71 -2202.94,-2548.91 -3537.47,-3167.97 -650.34,-301.67 -1332.48,-551.96 -2016.69,-767.54 -758.76,-239.06 -1533.03,-438.08 -2312.34,-600.01 -1019.69,-211.87 -2067.95,-366.03 -3108.89,-425.08l-9.37 55.8c2475.32,210.75 4988.15,726.3 7266.16,1721.01 379.09,165.54 754.35,361.7 1112,568.32 196.9,113.76 391.18,232.97 579.97,359.44 168.38,112.78 335.15,232.59 489.96,363.07 203.85,171.84 419.32,338.16 594.32,539.73 68.26,78.63 136.7,157.13 203.56,236.93 311.88,372.2 531.39,719.77 682.18,1183.94 206.44,635.55 151.2,1317.97 -132.45,1921.52 -900.78,1916.61 -3581.44,3077.72 -5521.57,3653.18 -1272.25,377.35 -2580.27,646.97 -3895.84,826.28 -1360.93,185.51 -2737.64,275.27 -4111.38,275.27 -1373.73,0 -2750.46,-89.76 -4111.39,-275.27 -1315.56,-179.31 -2623.59,-448.93 -3895.84,-826.28 -1022.08,-303.16 -2010.85,-683.08 -2936.31,-1212.04 -566.94,-324.06 -1098.46,-697.37 -1596.7,-1117.21 -914.99,-771.02 -1506.35,-2093.73 -1112.98,-3269.8 507.72,-1517.87 2243.75,-2611.29 3653.96,-3227.08 2278.61,-994.97 4791.89,-1510.39 7267.84,-1721.26l-9.17 -55.66z"/>
  <path class="fil1" d="M13007.95 2283.95c49.96,81.94 16.25,47.11 -63.16,300.82 -121.45,388.01 -144.34,797.25 -103.51,1207.2l-35.58 33.99c-3.85,3 -24.75,18.2 -33.45,23.72l79.73 7.68 40.76 247.55c-2626.88,213.95 -5142.23,759.16 -7347.68,1722.19 -1377.07,601.31 -3099.03,1677.5 -3596.38,3164.4 -388.96,1162.83 228.91,2439.53 1081.24,3157.75 1319.37,1111.76 2733.6,1786.3 4494.83,2308.7 4932.01,1462.86 11021.65,1462.86 15953.67,0 1907,-565.63 4570.72,-1713.29 5456.14,-3597.19 265.06,-564 331.11,-1219.49 127.67,-1845.76 -205.46,-632.54 -526,-993.98 -865.34,-1384.85 -166.14,-191.37 -376.82,-354.74 -582.71,-528.28 -536.9,-452.55 -1503.71,-989.91 -2156.07,-1274.77 -2205.46,-963.04 -4720.86,-1508.24 -7346.37,-1721.96l41.25 -245.55 77.93 -9.91c-80.35,-38.2 -55.87,-47.02 -69.04,-57.71 69.36,-696.3 -49.92,-896.99 -186.65,-1484.56l234.32 4.06 -261.37 -19.54c-95.87,-367.93 -572.97,-922.85 -804.52,-1102.01 -1005.03,-777.56 -2303.93,-788.53 -3301.92,13.38 -203.2,200.08 -459.75,376.44 -833.79,1080.65z"/>
  <path class="fil2" d="M662.95 10347.79c132.79,670.92 463.66,1220.81 871.09,1746.67l521.39 558.2c1068.2,979.08 2549.06,1767.28 4028.38,2307.71 560.98,204.93 1988.25,537.87 2243.17,944.34 216.58,345.37 26.17,346.08 424.41,622.65 562.5,390.65 1483.61,475.69 1564.23,81.23l-352.9 -138.16c14.11,-271.41 151.98,-285.26 407.81,-224.09 1768.96,422.93 1194.38,972.72 3732.94,946.36 -188.66,896.69 3038.81,979.41 2811.03,-6.71 923.14,75.55 1290.15,181.48 2256.15,-236.43 636.91,-275.53 1357.95,-903.12 1873.8,-660.89 53.27,336.39 -221.49,169.04 -343.09,350.58 84.16,214.88 493.28,252.95 779,200.01 292.56,-54.2 547.32,-169.6 760.95,-291.43 431.69,-246.18 225.16,-248.87 429.65,-617.11 108.45,-195.28 361.42,-320.38 621.75,-429.71 465.5,-195.51 1067.64,-352.46 1570.93,-533.54 1768.38,-636.28 3989.86,-1754.12 5000.79,-3402.26 544.92,-888.41 692.02,-1905.2 338.22,-2879.81 -350.18,-964.72 -1069.38,-1693.65 -1874.35,-2318.78 -976.57,-758.41 -2310.12,-1370.05 -3460.22,-1796.24 -506.83,-187.82 -1081.2,-324.84 -1574.77,-530.65 -1075.05,-448.25 -395.71,-650.82 -1059.54,-1038.75 -374.08,-218.6 -773.14,-382.84 -1244.22,-287.2 -182.69,37.09 -258.31,69.59 -291.43,219.66 84.72,78.24 263.71,87.65 361.78,173.78 -30.51,572.86 -1199.07,-156.49 -1361.52,-239.41 -490.67,-250.45 -841.78,-494.61 -1488.83,-556.34l-234.32 -4.06c136.73,587.57 256.01,788.26 186.65,1484.56 13.17,10.69 -11.31,19.51 69.04,57.71 2489.62,138.45 5490.94,873.37 7495.97,1803.45 1701.56,789.31 4636.34,2652.62 3473.85,5286.75 -782.33,1772.71 -3236.75,3030.06 -5526.37,3742.53 -4889.05,1521.36 -11456.52,1521.36 -16345.57,0 -2289.62,-712.47 -4744.04,-1969.82 -5526.37,-3742.53 -1163.52,-2636.47 1777.3,-4499.76 3473.85,-5286.75 2005.23,-930.17 5005.47,-1664.96 7495.97,-1803.45 8.7,-5.52 29.6,-20.72 33.45,-23.72l35.58 -33.99c-40.83,-409.95 -17.94,-819.19 103.51,-1207.2 79.41,-253.71 113.12,-218.88 63.16,-300.82 -552.87,-19.05 -1165.92,256.87 -1566.91,473.03 -288.94,155.76 -994,764.49 -1456.07,502.07 -41.54,-125.17 -2.66,-189.47 83.32,-233.09 75.19,-38.15 184.27,-36.77 253.42,-92.52 -128.72,-413.99 -1037.72,-268.35 -1567.67,83.29 -439.08,291.36 -217.51,364.81 -441.09,637.33 -351.14,428 -1604.9,710.6 -2240.97,946.06 -1759.14,651.19 -4064.44,1802.64 -4974.43,3489.16 -406.72,753.8 -596.06,1442.69 -434.6,2258.51z"/>
  <path class="fil3" d="M18230.92 3849.67l-77.93 9.93 -41.25 245.54c2625.51,213.72 5140.91,758.93 7346.37,1721.96 652.36,284.86 1619.17,822.22 2156.07,1274.77 205.89,173.53 416.57,336.91 582.71,528.28 339.34,390.87 659.88,752.31 865.34,1384.85 203.44,626.27 137.39,1281.76 -127.67,1845.76 -885.42,1883.91 -3549.14,3031.56 -5456.14,3597.19 -4932.02,1462.85 -11021.66,1462.85 -15953.67,0 -1761.23,-522.39 -3175.46,-1196.94 -4494.83,-2308.7 -852.33,-718.22 -1470.2,-1994.92 -1081.24,-3157.76 497.35,-1486.88 2219.31,-2563.08 3596.38,-3164.39 2205.45,-963.03 4720.8,-1508.24 7347.68,-1722.19l-40.76 -247.55 -79.73 -7.69c-2490.5,138.51 -5490.74,873.28 -7495.97,1803.46 -1696.55,786.99 -4637.37,2650.28 -3473.85,5286.74 782.33,1772.72 3236.75,3030.07 5526.37,3742.54 4889.05,1521.36 11456.52,1521.36 16345.57,0 2289.62,-712.47 4744.04,-1969.82 5526.37,-3742.54 1162.49,-2634.12 -1772.29,-4497.43 -3473.85,-5286.74 -2005.03,-930.08 -5006.35,-1665 -7495.97,-1803.46zm256.26 7025.17c-86.94,282.25 -509.29,225.14 -320.18,-219.26 168.92,-396.97 441.4,-174.29 320.18,219.26zm-3348.23 -9819.52c1398.01,-240.31 2442.15,846.15 2611.07,2020.35 199.77,1388.64 -737.32,2539.6 -1880.03,2736.84 -1396.08,240.97 -2442.88,-843.14 -2613.79,-2006.44 -206.35,-1404.56 719.82,-2550.85 1882.75,-2750.75zm-4606.11 4984.22l11.17 -43.6c59.72,-249.82 150.66,-63.92 108.84,-334.39 -94.79,76.13 -12.19,55.27 -150.68,61 -7.19,-136.25 -15.8,-92.17 -40.09,-178.87 -8.94,-31.92 -15.49,-5.35 -14.83,-68.28 0.88,-84.35 -55.85,30.68 27.68,-89.86 28.53,-2.61 171.96,270.7 442.6,45.86 -121.15,-8.91 -114.24,-6.99 -167.12,-75.69 113.85,-121.28 421.45,-278.25 471.28,-310.36 -357.3,-18.36 -699.37,88.25 -878.6,276.44 -264.93,278.16 -68.51,586.31 189.75,717.75zm9719.92 -683.83c-52.88,68.7 -45.97,66.78 -167.12,75.69 270.64,224.84 414.07,-48.47 442.6,-45.86 25.29,36.49 19.35,-1.49 25.69,66.91 11.8,127.41 -42.5,72.24 -52.93,270.1 -99.34,-4.11 -97.62,-19.36 -152.12,-62.31 -32.92,242.43 41.02,127.32 97.33,277.79l18.26 79.36c1.07,4.45 2.05,15.51 5.86,22.15 635.77,-323.58 258.07,-1042.86 -688.85,-994.19 55.29,35.62 348.36,179.41 471.28,310.36zm-2062.94 -352.31l-169.49 -104.68c-42.87,58.29 -1.1,-19.34 -28.2,67.15 -69.32,221.2 -74.97,224.8 3.86,378.14 11.16,21.71 20.01,41.75 31.18,61.12l51.95 76.47c304.65,-358.04 914.58,-463.9 1477.88,-462.61 -50,-68.55 -95.88,-96.73 -182.22,-115.89 -68.95,-15.29 -91.55,-7.72 -144.64,-15.53 -231.52,-34.04 -290.88,-225.46 -550.27,68.11l-72.81 -179.22c-167.41,117.74 -210.58,30.49 -417.24,226.94zm-5866.52 -47.72c-255.25,-288.89 -362.25,-104.22 -523.22,-71.54 -100.98,20.51 -240.33,-14.37 -353.9,129.73 409.68,47.2 1095.43,18.25 1477.87,467.73 110.82,-113.71 154.56,-264.98 112.91,-418.79l-50.81 -158.45 -176.12 93.39c-203.34,-190.8 -246.51,-103.55 -413.92,-221.29l-72.81 179.22zm-1225.74 217.49c338.5,210.46 255.69,74.85 456.26,89.59 -118.57,145.29 -226.36,260.54 -32.54,457.04 113.42,-54.2 16.67,-35.72 129.53,-147.52 172.45,4.83 70.52,85.97 270.04,83.79 -121.51,-482.11 518.5,-389.6 690.69,-209.67 -204.71,23.06 -269.64,-46.39 -376.82,-43.7 -113.73,2.86 -62.17,14.64 -121.83,71.08 -112.88,106.76 10.15,17 -141.59,92.7 123.99,180.5 108.7,-11.33 129.19,217.38 14.25,158.98 63.27,173.75 171.4,233.04l100.07 -188.77c130.03,0.09 66.12,89.27 294.43,65.14l-4.38 -166.48c362.15,-83.26 475.59,430.07 228.34,699.74 -46.5,50.72 -62.99,59.73 -111.34,102.85 -118.51,105.74 -52.14,3.02 -104.46,127.02 219.91,-41.03 428.23,-318.54 429.56,-595.86 1.47,-307.15 -175.06,-518.44 -354.58,-654.67 -327.26,-248.34 -1197.8,-466.63 -1651.97,-232.7zm7231.52 1483.4c-64.17,-150.64 -37.9,-45.88 -201.25,-214.43 -272.36,-281.03 -143.61,-798.74 200.85,-715.05l16.62 165.97c219.79,24.34 155.88,-64.84 272.32,-59l100.78 188.46c109.49,-58.59 165.4,-75.6 183.26,-215.03 34.76,-271.37 -7.38,-40.71 130.21,-241.01 -113.83,-56.78 -36.96,6.35 -125.19,-77.23 -79.52,-75.32 7.61,-67.12 -117,-86.05 -74.41,-11.31 -212.81,64.07 -398.05,43.2 172.19,-179.93 812.2,-272.44 690.69,209.67 123.6,1.35 57.01,4.45 137.33,-32.71 145.08,-67.13 -27.83,-46.58 132.71,-51.08 112.86,111.8 16.1,93.32 129.53,147.52 190.33,-192.96 89.87,-310.44 -31.22,-455.65 199.48,-15.85 71.73,71.77 253.63,14.14 34.59,-10.95 164.14,-82.01 201.31,-105.12 -499.05,-257.03 -1983.45,-11.1 -2006.21,858.05 -7.72,294.91 199.53,582.16 429.68,625.35zm-2672.22 -2407.81c-257.35,-303.06 -77.14,-868.21 413.18,-558.63 628.63,396.88 120.02,1747.63 -677,1128.85 -296.27,-230 -416.14,-481.73 -504.53,-850.69 -93.55,-390.41 -96.54,-830.4 16.77,-1226.19 94.13,-328.76 299.16,-673.96 596.88,-757.68 681.96,-191.79 1089.43,850.17 602.77,994.22 -224.42,66.43 -343.33,-86.12 -351.42,-291.82 193.54,-85.49 226.01,-47.9 280.8,-157.13 50.44,-132.92 -68.08,-284.78 -138.71,-349.62 -21.98,-8.63 -730.59,75.02 -492.41,695.07 329.59,858.05 1536.18,11.54 1263.71,-569.68 -82.06,-175.03 -473.88,-554.47 -630.91,-666.26 -775.77,-552.3 -1287.05,62.07 -1526.11,683.05 -242.82,630.69 -332.73,1559.99 -130.64,2240.62 237.77,800.82 989.4,1097.81 1615.01,757.66 785.8,-427.27 814.21,-1440.33 467.37,-1709.64 -678.85,-527.12 -1596.46,-149.42 -1079.31,789.61 205.85,373.77 608.32,372.2 771.5,4.65 200.88,-452.53 -301.56,-799.07 -469.77,-459.87 66.99,97.63 134.8,93.56 177.7,205.86 -53.7,40.7 -117.82,75.82 -204.88,97.62zm-467 -3473.11c-1333.7,189.86 -2396.01,1413.91 -2216.98,2973.62 154.85,1349.06 1307.85,2535.59 2838.87,2344.28 1320.68,-165.03 2383.82,-1428.64 2220.38,-2966.01 -141.1,-1327.18 -1313.24,-2569.56 -2842.27,-2351.89zm-5132.89 13110.09c2.38,14.42 8.34,28.86 18.48,43.28 2.7,3.62 4.71,7.14 6.02,10.5 -1.36,-4.09 -3.45,-7.82 -6.31,-11.37 -9.25,-12.67 -15.22,-26.8 -18.19,-42.41zm10899.42 -16.2c2.98,-2.94 4.46,-4.71 4.46,-5.3l2.68 -9.43c1.8,-5.3 6.28,-10.89 14.02,-16.49l73.4 -56.25c3.57,-2.94 5.66,-4.43 6.84,-5.01l16.72 -12.08 10.42 -15.61c7.76,-10.9 20.29,-22.96 37.59,-35.62l17.61 -12.1 27.73 -36.2 10.74 -10.31 20 -17.4 27.14 -22.37 16.41 -21.5 27.13 -23.55 19.39 -19.44 17.6 -16.5c1.8,-1.46 6.26,-6.77 14.02,-15.3 6.28,-6.21 12.23,-10.92 17.31,-13.57l1.78 -0.87c17.02,-6.77 30.14,-10.31 39.68,-10.31 52.51,0 78.74,23.84 78.74,71.27 0,27.09 -1.19,45.64 -3.58,55.95l-6.55 23.28 -2.69 32.97c-2.38,26.51 -7.45,53.33 -15.81,80.42l-19.08 58.89 -16.73 53.02c-3.86,13.84 -8.04,24.44 -12.22,32.09l-5.07 9.44c-7.16,14.43 -11.03,28.26 -12.23,41.51 -0.59,3.55 -0.89,5.9 -0.89,7.07 -1.18,4.72 -1.8,7.96 -1.8,9.44 0,4.12 2.39,6.47 6.87,7.06 7.16,0.6 15.22,-3.24 24.46,-11.49l24.76 -22.67 7.75 -5.9c9.85,-7.05 23.57,-19.13 40.86,-36.81 10.73,-10.9 23.27,-21.21 37.58,-30.33 4.78,3.82 7.76,9.41 8.96,16.2 2.4,14.42 8.36,28.86 18.21,43.28 4.75,6.79 7.14,13.26 7.14,19.16 -14.02,9.71 -23.57,17.66 -28.94,24.15l-8.64 11.19c-1.19,1.77 -7.15,5.59 -17.59,12.07 -5.67,3.54 -12.83,8.26 -20.89,14.73 -12.82,10.31 -21.77,17.07 -27.14,19.71l-29.82 14.75 -32.22 28.57 -23.57 20.01c-18.2,15.91 -28.05,24.14 -29.82,24.14l-17.32 4.14 -18.49 21.79c-5.07,6.2 -11.04,10.61 -17.29,12.97l-20.3 5.88 -43.54 17.67 -8.94 -3.81c-7.47,-4.42 -11.04,-11.21 -11.04,-19.74 0,-1.18 0.3,-2.66 0.89,-4.43l0.89 -7.06 -10.13 -17.09c-1.2,-1.17 -3.89,-13.25 -8.37,-36.5l-4.16 -19.17c-1.8,-8.53 -3.58,-23.84 -5.07,-45.63l-0.89 -8.84 3.57 -22.39 -0.89 -4.4 -6.27 -19.75c0,-1.76 0,-2.94 0,-3.53 5.36,-37.69 27.14,-57.43 65.92,-59.79 8.06,-0.58 13.73,2.65 16.7,9.44l6.88 13.83c1.77,3.84 4.16,5.59 7.14,5.01 8.67,-1.17 15.81,-25.63 20.88,-73.92l4.49 -39.47 4.46 -28.58 2.38 -26.5c2.39,-21.79 3.6,-34.75 3.6,-38.85 0,-15.03 -7.17,-22.41 -21.77,-22.41 -7.77,0 -27.47,13.55 -59.39,40.66l-64.72 55.06 -14.9 12.08c-12.25,10.31 -21.78,19.15 -28.94,25.92l-78.45 72.45c-4.78,4.72 -7.75,8.24 -8.96,10.59l-5.05 12.97c-1.21,2.06 -4.78,6.18 -10.44,12.08 -0.62,-7.51 -3.2,-13.63 -7.8,-18.84 5.19,6.68 7.5,13.04 7.5,18.84 -16.11,17.07 -28.65,28.84 -37.58,35.34l-18.21 12.07 -26.25 19.15c-2.98,1.46 -9.24,4.7 -19.09,9.41 -42.04,34.75 -73.07,51.56 -92.76,49.78l-24.47 -1.78 -20.86 0c-43.87,0 -74.88,-25.89 -93.67,-77.74l-14.02 -40.64c-2.08,-6.48 -8.37,-15.61 -18.19,-27.68 -4.19,-5.31 -7.17,-9.41 -8.65,-12.98l-19.41 -33.55c-1.77,-3.54 -5.66,-5.3 -12.21,-5.3 -19.71,0 -44.46,17.07 -74.28,51.23l-12.22 13.84c-1.21,1.19 -3.89,4.13 -7.76,8.85 -16.41,12.65 -32.51,27.09 -48.32,43.29 -46.53,48 -91.27,71.87 -134.52,71.87 -76.36,0 -116.62,-42.71 -121.4,-128.12 -1.21,-20.62 -5.07,-31.52 -12.24,-32.7 -2.98,-0.58 -10.15,6.49 -21.78,21.49 -5.96,7.37 -18.19,17.39 -36.69,29.16 -16.41,10.92 -26.85,18.87 -31.6,23.27l-53.11 53.59c-31.62,30.94 -59.35,52.73 -83.21,65.4l-36.7 19.74c-26.85,14.43 -44.14,21.21 -52.19,20.6 -53.69,-2.94 -80.54,-30.61 -80.54,-83.04 0,-18.56 5.96,-38.28 17.29,-59.8l4.48 -6.76 17.59 -19.14c1.2,-1.19 1.79,-4.42 1.79,-9.43 0,-2.95 0,-6.18 0,-9.42 -1.18,-7.66 -3.86,-13.86 -7.75,-19.16 -10.15,-13.25 -16.11,-27.67 -18.5,-43.28 -1.18,-6.79 -4.16,-12.38 -8.94,-16.2 1.79,-2.36 3.27,-4.13 4.48,-5.3l0.89 -1.78c4.78,-5.59 7.75,-10.01 9.53,-12.95l11.36 -18.27 79.62 -52.41c4.19,-2.96 11.65,-13.25 22.68,-31.22 9.84,-15.02 19.09,-24.14 27.14,-27.69l14.02 -6.17c1.79,-0.88 7.46,-8.26 17.31,-21.51 6.55,-9.72 18.18,-19.73 35.2,-30.03 29.53,-19.75 48.91,-33.58 57.56,-41.54l32.22 -30.34c15.21,-15.01 29.82,-27.09 43.85,-36.22 12.22,-8.23 19.1,-12.66 20.87,-13.83l18.49 -15.61 20.89 -11.21 17.61 -12.94c24.46,-18.26 53.38,-27.4 86.49,-27.4 31.63,0 46.54,13.25 44.74,39.75 -1.78,27.71 -17.3,49.78 -46.23,66.27l-19.98 12.09c-3.6,1.76 -6.28,4.11 -8.05,7.06l-17.32 25.92c-1.18,1.18 -8.94,7.65 -22.95,19.74l-20 16.49 -20.86 16.19c-2.39,1.77 -7.16,8.25 -14.93,19.14 -9.23,13.26 -18.49,22.69 -27.73,28.57 -13.42,7.95 -20.59,12.37 -21.18,13.55l-9.56 17.39c-1.77,2.36 -7.45,7.05 -17.59,14.71 -11.64,8.53 -27.15,24.43 -47.14,47.42 -11.03,13.25 -25.04,27.4 -42.65,42.12 -14.01,12.07 -23.27,22.38 -28.03,30.34l-17.31 30.32 -15.81 25.03 5.37 6.78 4.18 -1.77c43.55,-23.56 82.93,-52.41 117.53,-86.86 19.38,-19.75 32.81,-31.83 40.27,-36.24l21.77 -12.96 3.28 -2.65 28.94 -33.58c8.35,-10.03 20.27,-20.02 35.78,-30.33l36.7 -25.91c7.17,-2.08 19.98,-2.95 38.77,-2.95 26.55,0 39.68,24.74 39.68,74.51l-1.8 65.69c0,13.24 2.69,25.3 7.76,36.52 11.64,23.56 28.34,35.33 49.52,35.33 8.95,0 16.7,-3.53 23.58,-10.61l30.41 -34.45 16.7 -10.3c1.2,-0.6 2.98,-2.66 5.08,-5.9 2.97,-2.94 4.45,-4.71 4.45,-5.3l2.69 -9.43c1.2,-2.36 5.67,-7.96 14.01,-16.49 1.81,-1.78 6.58,-7.37 14.93,-17.39 8.65,-10.28 37.88,-36.5 87.41,-78.32 14.9,-12.68 25.64,-23.86 32.21,-33.01l16.7 -22.36c12.22,-16.79 26.55,-25.03 42.66,-25.03 54.87,0 85.29,37.4 91.87,112.2 2.38,22.98 5.07,41.82 8.64,56.25l14.92 54.2 2.69 16.79c4.46,26.5 19.38,39.75 44.44,39.75 23.27,0 44.45,-8.24 63.84,-24.44l36.69 -30.93c3.57,-2.94 10.74,-8.54 21.77,-16.49zm20.06 47.99c-5.35,-10.01 -8.94,-20.62 -11.12,-31.79 1.57,10.62 5.31,21.18 11.12,31.79zm-506.94 -16.25c-1.71,-5.04 -3.07,-10.22 -4.11,-15.54 0.87,5.17 2.23,10.35 4.11,15.54zm352.36 -710.91c26.25,0 39.97,10.92 41.15,32.42 0,5.01 -2.98,18.55 -9.23,40.06l-11.65 43.58 -10.74 26.78 -5.96 15.61c-8.65,21.51 -20.59,36.24 -34.9,44.48l-14.92 8.54c-25.65,14.44 -42.64,22.4 -50.7,23.57 -0.61,0 -1.49,0 -2.68,0l-20.88 -3.53 -33.43 -0.88c-14.9,-7.95 -23.25,-30.06 -25.04,-66.87 -0.59,-15.3 4.78,-30.33 15.81,-44.45l29.82 -36.23 5.37 -7.67c8.65,-12.08 16.11,-18.54 22.66,-19.72l14.93 -1.78c0.59,-0.29 1.18,-1.18 1.8,-2.35l6.84 -12.09c14.02,-26.22 41.47,-39.47 81.75,-39.47zm-1872.93 679.17c2.97,-2.94 4.45,-5 4.45,-6.17l2.68 -8.56c1.21,-2.36 5.67,-7.96 14.02,-16.49l31.33 -32.1c2.98,-2.65 10.44,-8.83 22.68,-17.98 39.66,-46.22 70.98,-80.67 93.65,-103.66 18.49,-18.55 29.84,-30.02 33.12,-34.74l12.21 -15.61 16.73 -16.21 23.55 -26.21c34.01,-36.82 71.29,-55.08 112.15,-55.08 40.87,0 61.46,25.34 61.46,75.71 0,26.21 -8.36,63.91 -25.06,112.48l-14.33 42.12 -23.24 68.63c-4.78,13.84 -9.56,25.04 -14.34,33.58 -7.14,12.07 -10.74,22.66 -10.74,31.81 0,7.36 2.39,11.48 7.17,12.05 3.89,0.62 9.55,-5.29 16.7,-17.35 12.24,-20.04 26.85,-35.65 43.25,-46.54 9.26,-5.6 14.33,-9.13 14.92,-10.32l10.74 -21.49c3.27,-6.18 7.75,-11.48 13.12,-15.61l24.76 -18.86c4.78,-3.51 11.94,-12.66 22.07,-27.66 59.97,-49.2 106.19,-73.64 139,-73.64 52.81,0 90.39,43 112.76,128.69l6.87 27.41c8.05,32.68 23.54,48.87 46.23,48.87 14.01,0 26.55,-5.59 37.58,-17.07 4.78,3.82 7.76,9.41 8.94,16.2 2.1,14.42 8.36,28.57 18.21,42.41 5.37,7.66 7.75,14.13 7.75,20.03 -14.31,9.71 -24.45,17.66 -29.53,24.15l-8.65 11.19 -17.6 12.07 -27.14 17.96c-17,12.09 -33.72,17.98 -50.72,17.98 -39.06,0 -69.2,-21.5 -90.68,-64.79l-21.18 -41.25c-2.98,-5.88 -7.14,-11.76 -13.11,-18.25l-21.79 -24.15 -25.35 -30.94c-2.39,-1.75 -5.07,-2.64 -7.76,-2.64 -3.57,0 -16.69,6.78 -39.37,20.62l-19.38 12.96c-13.43,8.82 -24.47,17.97 -33.11,27.67 -8.06,10.61 -18.5,18.56 -31.33,24.46 -12.22,5.6 -20.57,12.36 -24.46,19.73l-14.01 24.15 -39.38 43.3 -26.26 30.33 -36.67 33.57 -29.83 30.92c-18.79,19.45 -42.95,29.15 -73.09,29.15 -27.44,0 -41.16,-11.77 -41.16,-35.33l1.79 -17.06 -3.59 -19.17c0,-2.94 1.8,-9.42 5.37,-19.73l8.05 -25.91 13.43 -34.46 7.16 -32.1 24.46 -72.44 9.26 -33.3c0.59,-3.52 4.46,-13.54 11.63,-30.03 5.66,-12.67 8.34,-23.57 8.34,-33.29 0,-8.54 -6.26,-12.96 -18.49,-12.96 -15.22,0 -42.66,22.68 -82.02,68.34 -11.35,13.25 -22.97,23.85 -35.22,31.81 -26.23,15.61 -42.33,29.73 -48.32,42.39l-5.05 12.97c-1.21,2.06 -4.78,6.18 -10.44,12.08 -16.41,12.65 -32.51,27.09 -48.32,43.29 -46.53,48 -91.28,71.87 -134.53,71.87 -76.35,0 -116.62,-42.71 -121.4,-128.12 -1.2,-20.62 -5.07,-31.52 -12.23,-32.7 -2.99,-0.58 -10.15,6.49 -21.78,21.49 -5.96,7.37 -18.2,17.39 -36.69,29.16 -16.41,10.92 -26.85,18.87 -31.6,23.27l-53.11 53.59c-31.62,30.94 -59.35,52.73 -83.22,65.4l-36.7 19.74c-26.84,14.43 -44.13,21.21 -52.19,20.6 -53.69,-2.94 -80.54,-30.61 -80.54,-83.04 0,-18.56 5.96,-38.28 17.29,-59.8l4.48 -6.76 17.59 -19.14c1.21,-1.19 1.8,-4.42 1.8,-9.43 0,-2.95 0,-6.18 0,-9.42 -1.18,-7.66 -3.87,-13.86 -7.76,-19.16 -10.14,-13.25 -16.11,-27.67 -18.49,-43.28 -1.18,-6.79 -4.17,-12.38 -8.95,-16.2 1.8,-2.36 3.28,-4.13 4.48,-5.3l0.89 -1.78c4.78,-5.59 7.76,-10.01 9.54,-12.95l11.35 -18.27 79.63 -52.41c4.19,-2.96 11.65,-13.25 22.68,-31.22 9.83,-15.02 19.09,-24.14 27.14,-27.69l14.01 -6.17c1.8,-0.88 7.47,-8.26 17.32,-21.51 6.55,-9.72 18.18,-19.73 35.19,-30.03 29.54,-19.75 48.92,-33.58 57.57,-41.54l32.21 -30.34c15.22,-15.01 29.83,-27.09 43.86,-36.22 12.22,-8.23 19.09,-12.66 20.86,-13.83l18.5 -15.61 20.89 -11.21 17.6 -12.94c24.47,-18.26 53.38,-27.4 86.5,-27.4 31.63,0 46.53,13.25 44.74,39.75 -1.78,27.71 -17.3,49.78 -46.24,66.27l-19.97 12.09c-3.6,1.76 -6.29,4.11 -8.05,7.06l-17.32 25.92c-1.18,1.18 -8.94,7.65 -22.96,19.74l-19.99 16.49 -20.86 16.19c-2.4,1.77 -7.17,8.25 -14.93,19.14 -9.24,13.26 -18.5,22.69 -27.73,28.57 -13.43,7.95 -20.59,12.37 -21.18,13.55l-9.56 17.39c-1.77,2.36 -7.46,7.05 -17.59,14.71 -11.65,8.53 -27.16,24.43 -47.14,47.42 -11.03,13.25 -25.04,27.4 -42.65,42.12 -14.01,12.07 -23.27,22.38 -28.04,30.34l-17.3 30.32 -15.81 25.03 5.37 6.78 4.18 -1.77c43.55,-23.56 82.92,-52.41 117.53,-86.86 19.38,-19.75 32.8,-31.83 40.27,-36.24l21.77 -12.96 3.27 -2.65 28.95 -33.58c8.34,-10.03 20.27,-20.02 35.78,-30.33l36.7 -25.91c7.17,-2.08 19.97,-2.95 38.77,-2.95 26.55,0 39.67,24.74 39.67,74.51l-1.79 65.69c0,13.24 2.68,25.3 7.75,36.52 11.65,23.56 28.35,35.33 49.53,35.33 8.94,0 16.7,-3.53 23.57,-10.61l30.42 -34.45 16.7 -10.3c1.2,-0.6 2.98,-2.66 5.08,-5.9zm13.8 33.79c-2.1,-5.66 -3.7,-11.49 -4.87,-17.59 0.98,5.87 2.58,11.72 4.87,17.59zm-1232.9 -33.79c2.97,-2.94 4.45,-4.71 4.45,-5.3l2.69 -9.43c1.79,-5.3 6.27,-10.89 14.01,-16.49l73.4 -56.25c3.57,-2.94 5.66,-4.43 6.85,-5.01l16.72 -12.08 10.42 -15.61c7.75,-10.9 20.29,-22.96 37.58,-35.62l17.61 -12.1 27.73 -36.2 10.74 -10.31 20 -17.4 27.14 -22.37 16.4 -21.5 27.15 -23.55 19.38 -19.44 17.61 -16.5c1.79,-1.46 6.26,-6.77 14.01,-15.3 6.28,-6.21 12.24,-10.92 17.32,-13.57l1.77 -0.87c17.01,-6.77 30.15,-10.31 39.68,-10.31 52.51,0 78.74,23.84 78.74,71.27 0,27.09 -1.19,45.64 -3.57,55.95l-6.56 23.28 -2.68 32.97c-2.39,26.51 -7.46,53.33 -15.81,80.42l-19.09 58.89 -16.72 53.02c-3.87,13.84 -8.06,24.44 -12.22,32.09l-5.07 9.44c-7.17,14.43 -11.03,28.26 -12.24,41.51 -0.59,3.55 -0.89,5.9 -0.89,7.07 -1.19,4.72 -1.79,7.96 -1.79,9.44 0,4.12 2.38,6.47 6.86,7.06 7.17,0.6 15.22,-3.24 24.47,-11.49l24.74 -22.67 7.76 -5.9c9.85,-7.05 23.57,-19.13 40.86,-36.81 10.74,-10.9 23.27,-21.21 37.59,-30.33 4.78,3.82 7.75,9.41 8.96,16.2 2.38,14.42 8.35,28.86 18.2,43.28 4.76,6.79 7.14,13.26 7.14,19.16 -14.01,9.71 -23.56,17.66 -28.93,24.15l-8.65 11.19c-1.19,1.77 -7.15,5.59 -17.59,12.07 -5.66,3.54 -12.83,8.26 -20.89,14.73 -12.82,10.31 -21.76,17.07 -27.13,19.71l-29.83 14.75 -32.22 28.57 -23.56 20.01c-18.21,15.91 -28.06,24.14 -29.83,24.14l-17.31 4.14 -18.5 21.79c-5.08,6.2 -11.04,10.61 -17.29,12.97l-20.3 5.88 -43.53 17.67 -8.95 -3.81c-7.46,-4.42 -11.04,-11.21 -11.04,-19.74 0,-1.18 0.3,-2.66 0.89,-4.43l0.89 -7.06 -10.12 -17.09c-1.21,-1.17 -3.89,-13.25 -8.37,-36.5l-4.17 -19.17c-1.79,-8.53 -3.57,-23.84 -5.07,-45.63l-0.89 -8.84 3.57 -22.39 -0.88 -4.4 -6.29 -19.75c0,-1.76 0,-2.94 0,-3.53 5.37,-37.69 27.15,-57.43 65.94,-59.79 8.05,-0.58 13.72,2.65 16.7,9.44l6.87 13.83c1.77,3.84 4.16,5.59 7.14,5.01 8.67,-1.17 15.81,-25.63 20.89,-73.92l4.48 -39.47 4.45 -28.58 2.4 -26.5c2.38,-21.79 3.59,-34.75 3.59,-38.85 0,-15.03 -7.17,-22.41 -21.77,-22.41 -7.76,0 -27.47,13.55 -59.38,40.66l-64.72 55.06 -14.91 12.08c-12.24,10.31 -21.78,19.15 -28.94,25.92l-78.44 72.45c-4.78,4.72 -7.76,8.24 -8.96,10.59l-5.06 12.97c-1.2,2.06 -4.78,6.18 -10.44,12.08 -0.61,-7.66 -3.3,-13.86 -8.05,-19.16 4.75,6.79 6.85,13.26 6.85,19.16 -8.65,8.54 -15.52,14.43 -20.89,17.95l-3.57 2.66 -58.47 49.19c-23.87,19.14 -51.3,28.57 -82.02,28.57 -18.79,9.99 -43.57,15 -74.28,15 -71.3,0 -115.73,-33.26 -133.93,-100.12 -7.46,-26.21 -17.9,-38.88 -31.33,-37.71 -11.04,0.61 -22.37,8.57 -33.99,24.46 -28.03,27.09 -48.62,44.17 -62.04,51.83 -6.56,7.95 -10.74,13.25 -13.12,15.32l-38.48 32.98 -25.36 30.34c-45.65,53.3 -84.12,80.1 -114.85,80.1 -51.6,0 -77.24,-30.33 -77.24,-90.99 0,-70.99 5.37,-119.88 16.11,-146.39l4.75 -12.07 0.91 -24.14c0.59,-4.72 3.57,-16.2 8.64,-34.47 4.78,-15.61 7.77,-32.1 8.95,-49.77 0.61,-9.72 1.2,-15.32 1.79,-16.49l20.59 -41.24c0.59,-1.17 0.89,-2.36 0.89,-3.52 0.59,-4.44 -1.79,-6.79 -7.16,-6.79 -3.88,0 -6.85,1.77 -8.65,5.3l-12.22 17.96c-0.61,1.18 -3.89,4.44 -9.85,10.31 -13.42,12.07 -22.97,22.39 -28.94,30.94l-4.48 4.99c-5.66,8.56 -16.99,18.55 -33.4,30.06 -11.62,8.53 -18.79,15.02 -21.77,18.84l-16.7 21.5 -47.14 40.63 -14.9 22.69c-1.8,2.06 -5.37,6.18 -10.44,12.08 -14.02,9.71 -23.58,17.66 -28.95,24.15l-8.64 11.19c-1.21,1.17 -2.69,2.35 -4.48,3.53l-27.14 17.97c-1.19,1.17 -8.36,7.36 -21.77,18.25 -14.01,11.48 -27.15,20.63 -39.38,27.69l-45.35 25.04 -42.95 28.58 -14.61 4.98 -27.43 15.02c-2.98,1.48 -7.18,2.36 -13.13,2.36 -46.84,0 -71.3,-15.02 -73.69,-44.76 0,-2.65 1.79,-9.12 5.37,-18.84 2.98,-7.38 5.98,-17.08 8.96,-29.17 2.68,-10.31 4.76,-16.49 5.97,-18.84l16.99 -29.16 12.83 -51.85 14.63 -54.17c8.05,-27.38 12.21,-53.6 12.21,-78.35 0,-60.68 -19.08,-93.07 -57.55,-97.19 -1.8,0 -7.77,4.12 -18.21,12.07l-42.95 34.16c-22.07,17.39 -45.64,43.58 -70.39,78.94 -6.57,8.54 -11.65,14.14 -15.81,16.49l-20.88 11.8 -17.62 22.67 -53.39 42.39 -5.05 12.97c-1.21,2.64 -4.78,6.78 -10.44,12.08 -0.62,-7.66 -3.3,-14.16 -8.06,-20.03 -9.26,-12.67 -15.22,-26.8 -18.2,-42.41 -1.21,-6.79 -4.18,-12.38 -8.94,-16.2 7.73,-9.43 12.51,-15.89 14.9,-20.03l11.33 -18.27 73.99 -61.84c10.15,-9.42 19.97,-21.2 29.82,-35.62l18.21 -27.41c3.57,-5.3 11.91,-17.66 25.34,-37.11 11.33,-15.61 17.01,-24.73 16.4,-27.68l-7.14 -40.65c0,-1.47 1.18,-3.82 3.57,-6.76 3.87,-5.3 11.03,-11.79 20.88,-19.75l20.89 -16.49c30.42,-24.73 58.16,-37.1 83.22,-37.1 27.15,0 50.39,10.6 69.8,31.8l19.98 21.21 13.12 9.43c47.44,36.52 70.99,97.5 70.99,183.18 0,21.51 -4.76,44.49 -14.01,69.22l-31.63 83.94 -6.26 32.69c-1.18,4.13 -1.8,7.36 -1.8,9.73 0,5.58 2.4,8.81 6.88,9.41 14.6,2.36 38.47,-11.78 70.97,-42.42 29.24,-27.08 46.26,-41.81 50.72,-44.16 10.91,-5.52 18.64,-10.77 22.85,-15.17l-0.17 -0.15c0.59,-4.13 1.48,-6.49 2.69,-7.08l8.64 -7.65c0.89,-0.58 3.87,-6.18 9.83,-16.49 3.6,-5.88 8.37,-11.48 14.93,-17.39l62.04 -55.95c9.25,-8.25 19.38,-20.01 30.41,-35.62l26.25 -40.65 22.69 -30.05 14.01 -20.92 14.91 -16.19 28.05 -49.46 19.09 -31.81 19.38 -35.94 11.95 -20.61 16.4 -28.27c4.46,-7.95 6.84,-12.97 6.84,-15.32 -0.59,-7.95 -5.37,-11.18 -14.6,-9.43l-23.57 4.43c-1.8,0.58 -4.17,0.87 -7.76,0.87l-15.52 0 -10.41 0 -44.76 0 -17.6 0 -20.87 0 -23.57 -1.75 -22.68 -0.91 -10.45 -5.88c-3.86,-2.35 -8.04,-4.13 -11.91,-5.31 -19.69,-3.51 -29.24,-11.47 -28.65,-23.55 3.6,-76.29 19.09,-114.56 47.14,-114.56 23.28,0 49.51,2.06 79.33,6.18l4.19 0.89 25.35 -5.3 22.68 0.88 34.01 3.82 7.73 2.06c15.22,-2.35 26.85,-4.71 35.23,-6.76 6.25,-2.36 10.12,-3.55 11.32,-3.55l28.94 8.85c0,0 2.08,-0.3 6.85,-0.89 15.81,-1.75 30.44,-19.15 43.86,-51.83 5.66,-14.45 10.13,-24.46 13.11,-30.35l26.25 -48.58c12.84,-22.98 28.94,-34.46 48.03,-34.46 29.23,0 43.84,17.07 43.84,51.24 0,18.56 -5.66,41.52 -16.99,69.21 -4.78,12.38 -7.47,22.97 -8.06,32.1 0,2.96 1.5,5.62 4.48,7.96l14.02 12.07c3.27,4.13 4.78,13.55 4.78,28.57 0,70.09 -6.58,106.03 -20,108.39l-59.06 12.06c-2.39,0.59 -4.46,5.89 -6.26,15.62l-5.96 33.57 -9.56 21.51c-1.77,3.52 -3.86,11.18 -6.25,23.27 -1.2,6.46 -1.8,9.99 -1.8,11.18l-10.44 27.67c-1.18,4.14 -3.28,13.56 -6.85,28.58 -4.18,18.26 -8.65,34.45 -13.13,48.29l-9.55 29.16c-5.37,15.61 -9.53,32.71 -12.22,51.85l-3.6 25.91 -16.4 75.68c-1.78,10.03 -2.98,17.68 -3.57,23.56l-4.18 46.26c-0.6,7.05 -1.48,12.96 -2.69,18.27 -1.19,7.03 -1.78,12.34 -1.78,16.47 0,16.78 5.96,25.62 17.59,26.22 5.07,0 22.39,-13.25 51.31,-39.47 23.86,-21.79 42.06,-36.81 54.89,-45.05l14.02 -9.72c1.18,-0.6 3.82,-2.32 7.9,-5.77l-0.15 -0.13c2.98,-7.08 5.37,-11.79 7.15,-14.73l14.01 -16.49 14.92 -17.39c4.48,-5.59 15.22,-14.71 32.22,-26.8 1.8,-10.89 2.69,-18.26 2.69,-22.38l3.57 -43.27c0.29,-13.86 3.89,-27.41 10.44,-40.66l13.13 -25.92 18.2 -47.41c8.06,-21.2 20.59,-43.01 37.58,-64.8l13.13 -17.37c12.83,-17.08 22.95,-28.27 30.72,-33.57l16.4 -12.96 17.6 -25.93 0.89 -1.76 14.63 -9.43 14.02 -10.3c16.4,-12.07 39.06,-18.26 68.91,-18.26 42.34,0 67.71,19.14 75.75,57.73l2.69 15.61 5.97 24.14c0.59,3.53 0.88,8.25 0.88,13.84 0,5.3 -1.77,11.18 -5.05,18.26 -3,5.3 -5.37,10.6 -7.16,16.49l-7.77 27.4c-10.44,37.11 -35.49,77.17 -75.45,120.17l-18.21 20.03 -27.14 32.67 -6.87 7.08 -27.73 26.51 -13.73 12.95c-9.55,9.43 -14.3,18.86 -14.92,28.56 -2.38,36.82 12.84,60.1 45.35,69.21l11.33 3.55c16.11,5.01 25.07,7.66 26.84,7.66 0.61,0 6.28,-0.6 16.72,-1.78l25.05 -2.64c2.98,0 8.05,-1.17 15.81,-4.14 15.52,-5.3 24.16,-7.95 25.05,-8.53l3.6 -0.88c6.85,-1.78 11.92,-3.84 14.89,-6.18l9.56 -8.55 28.03 -13.83c1.21,-0.6 2.99,-2.66 5.96,-5.9l0.24 0.19 -0.21 -0.19zm20.05 47.99c-5.34,-10.01 -8.93,-20.62 -11.12,-31.79 -0.65,-3.72 -1.85,-7.06 -3.57,-9.96 1.7,2.92 2.79,6.24 3.28,9.96 1.71,10.62 5.58,21.18 11.41,31.79zm-426.68 21.1c-1.31,-3.38 -3.19,-6.48 -5.66,-9.29 2.47,3.19 4.38,6.28 5.66,9.29zm-15.59 -26.35c-3.91,-8.4 -6.7,-17.33 -8.53,-26.54 1.4,8.85 4.26,17.72 8.53,26.54zm260.83 -324.29c-9.25,0 -24.76,14.72 -46.83,44.46l-3.28 5.29c-20.58,28.88 -31.62,53.31 -32.83,73.06 -0.59,8.24 2.99,12.06 10.45,11.48 7.46,-0.58 14.02,-5.3 19.99,-14.13l7.76 -15.03 42.05 -48.59c9.85,-12.38 14.62,-25.04 14.62,-38.29 0,-12.07 -3.89,-18.25 -11.93,-18.25zm-747.82 317.56c-2.46,-6.37 -4.34,-12.98 -5.65,-19.81 1.1,6.66 2.98,13.27 5.65,19.81zm-1381.34 -114.65c-2.09,-13.26 -3.3,-22.08 -3.3,-25.92 2.98,-60.07 25.07,-94.81 66.23,-104.54 32.81,-7.67 51.3,-24.45 56.08,-50.37 0.89,-6.17 3.87,-15.03 8.65,-26.8l4.18 -12.08 14.9 -23.28c5.96,-7.95 16.11,-40.04 30.74,-95.7l19.09 -58.61 20.27 -64.79 21.18 -62.15c25.07,-69.5 43.86,-111.91 56.97,-126.94 19.4,-22.95 29.24,-36.21 29.24,-39.46 0,-2.34 -0.3,-4.11 -0.89,-5.3l-29.54 -41.51 11.63 -12.97 23.28 -25.64 43.83 -8.81c9.26,-2.37 17.32,-10.32 24.49,-24.15 14.6,-29.46 27.13,-45.65 37.57,-49.19 6.56,-1.76 31.61,-18.56 75.47,-50.07 13.43,-9.13 23.87,-13.84 30.72,-13.84 29.82,0 44.75,11.18 44.75,33.58 0,12.66 -6.88,31.51 -20.89,56.24 -13.42,22.38 -20.29,40.35 -20.29,53.61 0,10.89 3.89,18.25 11.35,22.38l106.48 55.96c15.22,8.25 25.36,46.23 29.82,113.98l8.06 72.44 -10.74 75.12 14.63 79.51c2.68,12.07 3.86,19.73 3.27,22.38l-10.74 100.13c-0.59,4.72 0.59,9.41 3.28,13.85 1.79,2.36 3.3,3.52 4.48,3.52l16.11 0.9c9.23,1.16 13.72,10 13.72,26.8 0,17.07 -4.49,28.87 -13.42,34.45l-18.5 11.2c-8.05,5.29 -11.63,9.73 -11.04,12.95l10.74 52.72 -17.59 122.52c0,47.42 -3.3,79.52 -9.55,96.9 -13.42,35.62 -19.38,56.54 -17.61,62.13l5.37 18.27c0.61,2.36 1.5,5.6 2.68,10.31 -4.75,17.36 -7.74,30.33 -8.93,38.88 -12.22,77.74 -38.18,115.14 -78.45,111.62 -12.83,-1.2 -19.09,-14.15 -19.09,-38.89 0,-9.72 1.48,-21.49 4.46,-35.33 1.8,-7.07 2.69,-11.79 2.69,-13.85 0,-1.76 -1.78,-13.26 -5.37,-34.75l5.98 -81.28 2.68 -44.76 2.07 -31.22 -8.94 -31.23 3.58 -33.58 0 -31.2 10.73 -23.29 -4.46 -38.87c-1.5,-25.31 -2.98,-38.87 -4.19,-40.64l-1.76 -1.77c-3.01,-1.17 -5.37,-1.76 -7.17,-1.76 -8.05,0.59 -21.48,5.89 -39.97,15.6 -12.84,6.19 -27.15,9.72 -42.96,10.31l-48.03 2.64c-0.59,0 -10.44,4.44 -29.53,12.97 -8.94,4.13 -30.42,10.3 -64.72,18.85 -15.81,3.54 -34.91,11.5 -57.58,23.55 -30.43,15.91 -55.77,24.15 -76.06,24.15 -14.01,0 -23.28,10.32 -28.03,30.94 -4.19,17.37 -10.44,35.33 -19.09,53.6l-20.29 44.17c-5.66,13.25 -13.72,39.47 -23.57,78.65 -4.46,19.72 -8.94,33.57 -13.13,41.51l-14.02 25.92 -9.53 60.67 -19.99 44.77 -10.44 26.81c-11.34,18.25 -29.54,27.38 -54.88,27.38 -21.18,0 -31.63,-13.55 -31.63,-40.64 0,-23.86 1.51,-40.35 4.48,-50.36l35.79 -117.51c3.58,-11.2 8.06,-32.41 13.13,-64.22 6.56,-34.75 14.01,-59.77 22.96,-75.38 7.46,-12.67 11.35,-23.86 11.35,-33.58 0,-5.3 -1.5,-7.66 -4.49,-7.05l-28.02 5.29c-1.8,0 -3.89,-0.6 -6.28,-1.78 -8.65,-4.71 -13.13,-12.95 -13.13,-24.43 0,-7.67 2.98,-17.97 8.67,-30.64zm292.62 -160.5l24.46 0 60.53 -10.61 34.91 -4.71c14.03,-1.48 21.48,-2.36 22.67,-2.36l25.36 3.53 59.35 -13.84c25.96,0 39.38,-6.46 40.57,-19.72 1.2,-7.65 1.79,-13.57 1.79,-18.26l1.8 -23.27 1.48 -55.37c2.68,-13.83 3.89,-21.21 3.89,-22.38l-10.74 -38.88 3.57 -34.75 -8.94 -41.53c0,-0.58 0,-1.78 0,-3.53l3.57 -19.74 -1.79 -6.18c-2.37,-5.6 -6.56,-12.95 -13.11,-21.51l-38.49 -56.23c-14.61,-20.92 -31.92,-31.22 -52.49,-31.22 -24.46,0 -48.03,37.1 -70.71,111.02 -10.12,30.04 -20.27,50.37 -30.71,60.68 -10.44,9.7 -16.11,18.55 -16.7,25.89l-0.91 12.38c0,1.77 -7.15,20.63 -21.77,57.15l-32.22 82.46c-2.38,6.18 -10.74,20.92 -25.34,44.17 -2.99,5.89 -4.78,10.9 -5.37,15.61 -0.62,10.89 4.16,16.5 14.01,16.5 2.39,0 5.37,-0.59 9.54,-2.07 6.57,-2.06 13.74,-3.23 21.79,-3.23zm-1411.21 232.06c4.78,-5.59 7.77,-10.01 9.53,-12.95l11.36 -18.27 79.63 -52.41c4.18,-2.96 11.65,-13.25 22.68,-31.22 9.83,-15.02 19.09,-24.14 27.14,-27.69l14.02 -6.17c1.8,-0.88 7.46,-8.26 17.31,-21.51 6.55,-9.72 18.17,-19.73 35.19,-30.03 29.53,-19.75 48.92,-33.58 57.56,-41.54l32.22 -30.34c15.22,-15.01 29.83,-27.09 43.86,-36.22 12.22,-8.23 19.09,-12.66 20.87,-13.83l18.49 -15.61 20.88 -11.21 17.61 -12.94c24.46,-18.26 53.38,-27.4 86.51,-27.4 31.62,0 46.52,13.25 44.72,39.75 -1.77,27.71 -17.28,49.78 -46.23,66.27l-19.97 12.09c-3.59,1.76 -6.28,4.11 -8.06,7.06l-17.31 25.92c-1.18,1.18 -8.94,7.65 -22.95,19.74l-20 16.49 -20.86 16.19c-2.4,1.77 -7.17,8.25 -14.93,19.14 -9.24,13.26 -18.5,22.69 -27.73,28.57 -13.43,7.95 -20.59,12.37 -21.18,13.55l-9.56 17.39c-1.77,2.36 -7.46,7.05 -17.58,14.71 -11.66,8.53 -27.17,24.43 -47.14,47.42 -11.04,13.25 -25.06,27.4 -42.66,42.12 -14.02,12.07 -23.28,22.38 -28.03,30.34l-17.32 30.32 -15.81 25.03 5.37 6.78 4.19 -1.77c43.54,-23.56 82.93,-52.41 117.52,-86.86 19.39,-19.75 32.81,-31.83 40.28,-36.24l21.77 -12.96 3.28 -2.65 28.94 -33.58c8.34,-10.03 20.27,-20.02 35.78,-30.33l36.7 -25.91c7.16,-2.08 19.97,-2.95 38.77,-2.95 26.55,0 39.67,24.74 39.67,74.51l-1.79 65.69c0,13.24 2.68,25.3 7.75,36.52 11.66,23.56 28.35,35.33 49.53,35.33 8.94,0 16.7,-3.53 23.57,-10.61l30.42 -34.45 16.7 -10.3c1.21,-0.6 2.98,-2.66 5.07,-5.9 5.37,3.82 8.35,9.41 8.95,16.2 2.38,14.42 8.66,28.86 19.08,43.28 4.78,6.79 7.17,13.26 7.17,19.16 -16.4,12.65 -32.51,27.09 -48.32,43.29 -46.53,48 -91.28,71.87 -134.53,71.87 -76.36,0 -116.62,-42.71 -121.4,-128.12 -1.21,-20.62 -5.07,-31.52 -12.24,-32.7 -2.98,-0.58 -10.15,6.49 -21.77,21.49 -5.96,7.37 -18.2,17.39 -36.69,29.16 -16.41,10.92 -26.85,18.87 -31.61,23.27l-53.1 53.59c-31.63,30.94 -59.35,52.73 -83.22,65.4l-36.7 19.74c-26.85,14.43 -44.14,21.21 -52.19,20.6 -53.69,-2.94 -80.54,-30.61 -80.54,-83.04 0,-18.56 5.96,-38.28 17.3,-59.8l4.48 -6.76 17.59 -19.14c1.2,-1.19 1.79,-4.42 1.79,-9.43 0,-2.95 0,-6.18 0,-9.42 -1.18,-7.66 -3.87,-13.86 -7.76,-19.16 -10.14,-13.25 -16.1,-27.67 -18.5,-43.28 -1.17,-6.79 -4.16,-12.38 -8.94,-16.2 1.81,-2.36 3.28,-4.13 4.49,-5.3l0.88 -1.78zm-553.31 7.08c2.97,-2.94 4.45,-4.71 4.45,-5.3l2.68 -9.43c1.81,-5.3 6.29,-10.89 14.02,-16.49l73.4 -56.25c3.57,-2.94 5.66,-4.43 6.85,-5.01l16.71 -12.08 10.43 -15.61c7.75,-10.9 20.29,-22.96 37.58,-35.62l17.61 -12.1 27.73 -36.2 10.74 -10.31 20 -17.4 27.14 -22.37 16.41 -21.5 27.14 -23.55 19.38 -19.44 17.61 -16.5c1.79,-1.46 6.25,-6.77 14.01,-15.3 6.28,-6.21 12.24,-10.92 17.32,-13.57l1.77 -0.87c17.02,-6.77 30.14,-10.31 39.68,-10.31 52.51,0 78.74,23.84 78.74,71.27 0,27.09 -1.19,45.64 -3.57,55.95l-6.55 23.28 -2.69 32.97c-2.39,26.51 -7.46,53.33 -15.82,80.42l-19.08 58.89 -16.72 53.02c-3.87,13.84 -8.05,24.44 -12.22,32.09l-5.08 9.44c-7.16,14.43 -11.03,28.26 -12.23,41.51 -0.59,3.55 -0.89,5.9 -0.89,7.07 -1.18,4.72 -1.8,7.96 -1.8,9.44 0,4.12 2.39,6.47 6.87,7.06 7.16,0.6 15.22,-3.24 24.46,-11.49l24.76 -22.67 7.75 -5.9c9.85,-7.05 23.57,-19.13 40.86,-36.81 10.74,-10.9 23.28,-21.21 37.58,-30.33 4.78,3.82 7.76,9.41 8.97,16.2 2.39,14.42 8.35,28.86 18.2,43.28 4.75,6.79 7.15,13.26 7.15,19.16 -14.02,9.71 -23.58,17.66 -28.95,24.15l-8.64 11.19c-1.18,1.77 -7.15,5.59 -17.59,12.07 -5.66,3.54 -12.82,8.26 -20.88,14.73 -12.83,10.31 -21.78,17.07 -27.15,19.71l-29.82 14.75 -32.21 28.57 -23.58 20.01c-18.19,15.91 -28.04,24.14 -29.82,24.14l-17.31 4.14 -18.5 21.79c-5.07,6.2 -11.03,10.61 -17.29,12.97l-20.3 5.88 -43.54 17.67 -8.94 -3.81c-7.47,-4.42 -11.03,-11.21 -11.03,-19.74 0,-1.18 0.29,-2.66 0.88,-4.43l0.89 -7.06 -10.13 -17.09c-1.2,-1.17 -3.89,-13.25 -8.37,-36.5l-4.16 -19.17c-1.8,-8.53 -3.57,-23.84 -5.07,-45.63l-0.89 -8.84 3.57 -22.39 -0.89 -4.4 -6.27 -19.75c0,-1.76 0,-2.94 0,-3.53 5.37,-37.69 27.14,-57.43 65.92,-59.79 8.06,-0.58 13.73,2.65 16.7,9.44l6.88 13.83c1.78,3.84 4.16,5.59 7.14,5.01 8.67,-1.17 15.82,-25.63 20.89,-73.92l4.48 -39.47 4.46 -28.58 2.39 -26.5c2.38,-21.79 3.59,-34.75 3.59,-38.85 0,-15.03 -7.17,-22.41 -21.77,-22.41 -7.76,0 -27.46,13.55 -59.38,40.66l-64.73 55.06 -14.9 12.08c-12.24,10.31 -21.77,19.15 -28.93,25.92l-78.46 72.45c-4.77,4.72 -7.75,8.24 -8.96,10.59l-5.05 12.97c-1.21,2.06 -4.77,6.18 -10.44,12.08 -0.62,-7.66 -3.3,-13.86 -8.06,-19.16 4.76,6.79 6.85,13.26 6.85,19.16 -8.64,8.54 -15.51,14.43 -20.88,17.95l-3.57 2.66 -58.47 49.19c-23.86,19.14 -51.3,28.57 -82.02,28.57 -18.79,9.99 -43.56,15 -74.28,15 -71.3,0 -115.74,-33.26 -133.93,-100.12 -7.47,-26.21 -17.91,-38.88 -31.33,-37.71 -11.03,0.61 -22.37,8.57 -33.99,24.46 -0.48,-6.2 -2.35,-11.43 -5.56,-16 3.04,5.94 4.65,11.16 4.65,16 -42.66,34.15 -76.35,50.95 -101.41,49.76 -42.95,-2.35 -82.03,-26.22 -116.93,-72.15 -42.06,-55.66 -76.37,-83.33 -103.22,-83.33 -7.44,0 -22.37,7.65 -44.73,22.66l-17.31 12.08c-23.25,16.2 -46.52,42.41 -69.8,78.93 -7.15,10.29 -11.63,16.2 -13.12,17.37l-30.72 29.45c-5.67,4.71 -14.61,16.19 -26.26,34.76 -15.81,24.14 -28.93,39.75 -39.35,46.83l-17.32 12.08c-11.03,7.64 -19.08,11.19 -23.56,11.19l-0.89 0 -22.98 0c-18.48,0 -27.15,-12.09 -25.94,-36.24 0,-2.35 2.68,-12.06 7.76,-29.44 0.59,-2.07 1.48,-7.38 2.69,-15.32 2.97,-14.43 7.44,-31.22 14.01,-50.37l4.17 -13.83c8.37,-24.73 13.74,-44.19 16.71,-58.61l1.78 -9.43 6.87 -32.98 0.89 -17.09 11.33 -71.87 -3.28 -11.18c-2.98,-5.01 -8.05,-7.37 -14.9,-7.37 -7.17,0 -13.43,2.36 -19.4,6.78l-34 32.4 -40.27 30.33 -22.68 28.56c-4.75,5.92 -9.53,10.9 -14.9,15.61 -19.09,17.1 -28.94,26.51 -29.53,27.71l-12.24 19.72c-1.77,2.94 -10.44,11.18 -26.25,25.05 -18.8,16.77 -35.5,36.2 -50.72,57.99 -9.23,13.26 -20.27,25.34 -33.1,36.24 -12.22,9.72 -23.57,20.32 -33.4,31.22 -12.24,13.26 -21.47,19.72 -28.05,19.72l-0.59 0 -23.86 -0.87c-19.98,-3.24 -29.83,-11.48 -29.83,-24.15 0,-9.15 3.57,-25.34 11.03,-48.31 2.39,-5.3 5.67,-18.25 9.56,-39.16 4.46,-19.43 9.83,-35.65 15.49,-48.3l5.07 -10.31c4.49,-11.19 8.35,-29.15 11.03,-54.49 1.81,-12.67 3.61,-22.08 5.08,-27.68 2.39,-8.24 3.6,-14.43 3.6,-19.15 0,-8.54 -4.48,-12.95 -13.72,-12.95 -15.82,0 -28.94,7.64 -39.97,23.25l-17.32 25.34c-1.18,0.88 -3.57,3.24 -6.85,6.78 -42.95,43.29 -64.43,65.66 -65.04,67.44l-5.05 12.96c-1.8,2.93 -5.37,7.07 -10.44,12.37 -0.62,-7.66 -3.31,-14.16 -8.06,-20.03 -9.26,-12.67 -15.22,-26.8 -18.2,-42.41 -0.66,-3.72 -1.86,-7.06 -3.57,-9.96 1.69,2.92 2.79,6.24 3.28,9.96 2.38,14.42 8.64,28.86 18.49,43.28 4.75,6.79 6.85,13.26 6.85,19.16 -8.65,8.54 -15.51,14.43 -20.88,17.95l-3.58 2.66 -58.46 49.19c-23.87,19.14 -51.31,28.57 -82.02,28.57 -18.8,9.99 -43.57,15 -74.28,15 -71.3,0 -115.74,-33.26 -133.94,-100.12 -7.46,-26.21 -17.9,-38.88 -31.33,-37.71 -11.03,0.61 -22.36,8.57 -33.98,24.46 -14.02,9.71 -23.58,17.66 -28.95,24.15l-8.64 11.19c-1.21,1.17 -2.69,2.35 -4.48,3.53l-27.14 17.97c-1.19,1.17 -8.36,7.36 -21.77,18.25 -14.02,11.48 -27.15,20.63 -39.39,27.69l-45.34 25.04 -42.95 28.58 -14.61 4.98 -27.44 15.02c-2.98,1.48 -7.17,2.36 -13.13,2.36 -46.84,0 -71.29,-15.02 -73.68,-44.76 0,-2.65 1.79,-9.12 5.36,-18.84 2.99,-7.38 5.99,-17.08 8.97,-29.17 2.68,-10.31 4.76,-16.49 5.96,-18.84l16.99 -29.16 12.84 -51.85 14.63 -54.17c8.05,-27.38 12.21,-53.6 12.21,-78.35 0,-60.68 -19.09,-93.07 -57.55,-97.19 -1.8,0 -7.77,4.12 -18.21,12.07l-42.95 34.16c-22.07,17.39 -45.64,43.58 -70.4,78.94 -6.56,8.54 -11.64,14.14 -15.81,16.49l-20.88 11.8 -17.61 22.67 -53.39 42.39 -5.05 12.97c-1.21,2.64 -4.78,6.78 -10.44,12.08l-0.03 0c-16.4,16.78 -29.21,28.56 -38.47,35.64l-17.59 12.07 -27.16 18.25c-11.62,8.55 -21.16,13.25 -28.62,13.85 -1.21,0 -6.88,-0.6 -16.7,-1.77 -3.59,-1.16 -7.46,-1.77 -12.24,-1.77l-6.87 1.48c-14.6,15.62 -25.04,27.09 -31.6,34.46l-35.81 43.87c-5.37,7.07 -16.4,15.9 -33.1,26.82 -10.15,7.05 -16.11,11.47 -18.5,13.83l-18.2 18.26c-24.17,22.96 -54.88,33.27 -92.76,30.92 -7.45,-0.59 -19.7,-5.6 -36.69,-14.72l-25.35 -14.44c-12.24,-7.66 -19.7,-15 -22.68,-22.38l-6.26 -19.13 -8.35 -19.75c-2.98,-6.47 -6.28,-21.49 -10.44,-45.93l-5.96 -33.59c-2.09,-15 -3.3,-27.09 -3.3,-36.21l0 -27.7c0,-8.53 -1.48,-15.31 -4.45,-19.72 -0.91,-1.78 -2.4,-2.64 -4.2,-2.64 -0.58,0 -1.47,0 -2.68,0 -1.48,0.58 -3.86,1.16 -6.85,1.45l-7.75 8.85c-14.02,9.71 -23.87,17.66 -29.83,24.15l-8.64 11.19 -17.62 12.07 -26.25 17.96c-16.7,12.09 -34.58,17.98 -53.08,17.98 -26.84,0 -45.04,-12.09 -54.3,-35.94 -31.9,40.94 -63.82,68.33 -95.15,82.16l-26.25 10.31 -35.2 17.1c-6.87,2.65 -11.92,4.11 -14.92,4.11l-21.77 -1.76 -30.71 8.83c-34.32,1.78 -66.24,-11.18 -95.17,-38.88 -28.92,-27.68 -43.25,-59.48 -43.25,-95.13 0,-34.15 4.78,-60.96 14.63,-81.27 2.09,-5.89 3.28,-10.31 3.28,-13.85 0,-9.13 -4.49,-13.56 -13.43,-12.95 -7.46,0.58 -15.52,5.01 -23.86,13.25l-43.84 35.62 -5.97 12.97c-1.2,2.64 -4.77,6.78 -10.44,12.08l-0.02 0 -5.37 3.24c-19.68,9.41 -51,15.91 -93.37,20.02l-47.11 4.42c-1.8,0 -7.17,0 -15.81,0.58 -104.41,101.63 -205.83,167.57 -304.87,197.63l-25.34 7.66c-7.17,2.36 -11.95,3.53 -14.93,3.53 -21.47,0 -45.33,-8.54 -71.57,-25.64 -26.26,-17.07 -39.38,-32.39 -39.38,-46.22 0,-34.75 33.4,-66.85 100.22,-96.9l24.45 -11.19 19.41 -10.6c5.66,-2.95 22.95,-10.89 51.3,-24.15l29.83 -13.84c21.47,-9.72 35.49,-16.8 41.75,-20.91 11.05,-5.6 19.7,-8.54 25.37,-8.54 18.78,0 27.43,8.25 26.25,24.44 -1.8,16.49 -17.02,29.74 -45.35,40.34 -15.81,5.89 -23.27,11.19 -22.67,16.49 0.6,5.91 4.48,8.85 11.34,8.85 7.15,0 23.85,-11.2 50.72,-33.29 26.53,-22.37 39.35,-35.92 38.17,-41.22l-3.6 -20.61c0,-1.78 0.33,-2.95 0.92,-3.56l33.4 -30.32c6.86,-5.88 10.44,-15.91 10.44,-30.32 0,-38.01 -37.88,-94.26 -113.35,-168.77 -8.34,-8.24 -14.92,-15.32 -20.29,-21.79l-33.1 -37.11c-9.26,-10.31 -26.26,-25.34 -50.71,-45.06 -22.66,-18.55 -37.59,-35.35 -45.35,-50.96l-14.9 -30.33 -29.53 -30.35c-25.36,-29.15 -38.2,-74.5 -38.2,-135.47 0,-45.94 7.77,-79.81 23.58,-101.89l12.82 -17.97c2.99,-4.14 6.26,-12.97 10.45,-26.8 34.9,-56.25 81.42,-104.25 139.01,-144.02 20.86,-14.43 39.36,-28.86 54.87,-43.3l17.61 -11.19c17.59,-7.94 31.6,-16.19 42.04,-25.03 16.72,-14.14 39.68,-26.5 68.91,-36.22 17.61,-5.6 29.83,-10.32 36.7,-13.83l22.66 -11.22c10.15,-4.4 18.21,-7.64 24.46,-9.41l29.83 -8.54 21.77 -11.21c5.37,-2.33 11.34,-3.52 18.49,-3.52 14.04,0 26.25,5.88 36.7,17.68l12.24 13.24c5.05,7.67 7.74,20.32 7.74,37.99 0,44.48 -6.85,73.93 -20.87,88.95l-32.22 25.02 -18.49 16.49 -39.97 28.59 -34.01 26.79c-5.97,4.13 -19.38,11.79 -40.27,23.56 -17.29,9.14 -32.51,18.27 -45.05,26.8 -17.59,10.9 -31.9,16.49 -42.96,16.49 -17.87,0 -26.84,-8.83 -26.84,-26.19 0,-17.98 13.74,-36.23 41.47,-54.8 24.76,-16.19 36.7,-30.02 35.5,-40.94 -0.59,-3.53 -3.28,-5.3 -7.76,-5.3 -7.15,0 -14.61,3.26 -22.67,9.43 -11.64,10.31 -26.25,22.08 -44.45,34.76 -19.08,14.44 -33.1,27.69 -42.36,39.75 -10.44,13.25 -16.99,21.21 -19.08,24.14 -30.72,36.82 -46.24,69.22 -46.24,96.92 0,14.42 3.28,29.74 9.56,46.51l11.92 30.36 16.11 42.4 39.38 48.3 22.66 29.15 17.61 20.04 11.33 13.84c8.05,10.31 12.83,15.91 14.01,17.07 9.85,13.86 15.22,21.2 15.81,21.81l16.7 13.55c7.47,6.46 15.81,15.9 25.37,28.55 8.06,10.31 13.13,16.51 14.91,18.26l21.77 21.5c1.2,1.18 5.37,6.78 12.23,16.51 4.78,6.76 10.74,14.72 18.51,23.25 36.08,43.6 54.27,94.25 54.27,151.98l-1.79 33.58c0,13.26 2.09,21.21 6.27,24.15 1.19,1.18 8.06,1.76 21.18,1.76 5.04,0 10.05,-2.02 14.78,-6.35l-0.15 -0.13c7.74,-9.43 12.52,-15.89 14.91,-20.03l11.33 -18.27 68.32 -45.64c6.26,-4.12 15.2,-13.25 26.26,-27.68 22.65,-27.11 42.63,-45.66 60.23,-56.27 8.65,-4.98 13.43,-7.95 14.02,-8.53l18.2 -27.67 24.46 -21.5 22.07 -21.5 20.89 -18.27 59.34 -59.79c13.43,-9.73 30.15,-14.7 50.72,-14.7 20.29,0 33.71,5.29 39.97,15.89l0.89 2.65 -18.79 33.27c-0.59,1.77 -0.89,3.53 -0.89,5.01 0,4.14 1.79,6.18 5.37,6.78 1.79,0 8.35,-3.55 20.29,-10.31 12.82,-7.94 35.79,-14.16 68.6,-18.55 7.46,1.17 13.42,1.75 17.31,1.75 53.08,5.01 86.2,30.05 99.63,75.12l6.55 45.06c2.68,16.49 4.19,27.39 4.19,32.68 0,47.13 -17.32,95.71 -51.61,145.2l-0.9 0.88c3.89,13.83 10.44,20.91 19.08,21.49 8.31,0.6 18.71,-5.25 31.48,-16.94l-0.15 -0.13c1.78,-2.36 3.28,-4.13 4.47,-5.3l1.79 -1.78c4.77,-6.17 7.46,-10.59 8.65,-12.95l11.32 -18.27c4.78,-7.34 16.72,-18.25 35.81,-32.68 13.43,-39.76 23.55,-89.25 29.83,-148.44 5.96,-54.78 14.9,-101.59 27.14,-140.76l27.15 -85.41c30.11,-97.79 47.43,-151.38 51.59,-160.52l36.7 -87.18 8.64 -22.66c23.28,-60.97 45.64,-105.16 67.42,-132.85l19.99 -26.81c18.49,-24.14 30.42,-37.39 35.79,-39.75l21.77 -7.66 41.18 -21.78c18.18,-9.13 38.47,-13.56 61.13,-13.56 25.07,0 40.27,11.8 45.34,35.34l4.19 35.36c0.59,8.54 0.89,15 0.89,19.13 0,44.77 -14.31,105.45 -42.66,182.02 -18.79,51.23 -28.33,77.16 -28.94,77.45l-4.17 18.27c-3.57,13.83 -11.93,32.1 -25.36,55.08l-3.57 7.95 -25.34 52.72c-3.31,6.75 -6.28,12.35 -8.68,16.19l-22.65 39.76 -26.25 53.6 -23.58 21.5c-1.78,1.16 -2.68,2.35 -2.68,3.52l0 19.75c0,2.94 -2.98,7.95 -8.65,14.7 -13.42,17.4 -28.03,42.42 -43.84,75.13 -12.83,27.68 -26.26,50.65 -39.97,69.2l-17.61 23.28c-26.84,34.14 -40.86,63.29 -42.05,88.05l0 0.88 -0.9 74.51 12.53 28.56c2.1,12.09 3.28,20.92 3.28,26.8l0.9 10.31c3.58,52.14 19.99,78.35 48.92,78.35 26.85,0 47.12,-7.94 61.15,-23.85l11.33 -13.85 10.74 -10.61c2.69,-3.23 5.96,-10.29 9.54,-20.6 -32.22,-14.45 -48.03,-30.35 -47.42,-47.41 0,-2.36 3.87,-16.2 11.92,-41.53l7.47 -26.81 34.89 -53.89c39.09,-62.45 71.31,-93.67 96.95,-93.67l40.86 5.3 33.12 -7.06c18.19,0 27.15,12.37 27.15,37.12 0,30.62 -8.65,60.36 -26.26,89.22 -10.44,17.98 -16.11,31.51 -16.7,40.95 -0.59,6.76 2.09,10.61 8.35,11.19 3.87,0 8.65,-2.94 14.31,-8.53 1.5,-1.2 3.6,-2.96 5.67,-5.02l0.23 0.19 -0.22 -0.19c7.74,-9.43 12.52,-15.89 14.91,-20.03l11.33 -18.27 73.99 -61.84c10.15,-9.42 19.97,-21.2 29.82,-35.62l18.2 -27.41c3.58,-5.3 11.92,-17.66 25.35,-37.11 11.33,-15.61 17.01,-24.73 16.4,-27.68l-7.14 -40.65c0,-1.47 1.18,-3.82 3.57,-6.76 3.87,-5.3 11.03,-11.79 20.88,-19.75l20.89 -16.49c30.42,-24.73 58.15,-37.1 83.22,-37.1 27.14,0 50.39,10.6 69.8,31.8l19.98 21.21 13.12 9.43c47.44,36.52 70.99,97.5 70.99,183.18 0,21.51 -4.76,44.49 -14.02,69.22l-31.62 83.94 -6.26 32.69c-1.18,4.13 -1.8,7.36 -1.8,9.73 0,5.58 2.4,8.81 6.88,9.41 14.6,2.36 38.46,-11.78 70.97,-42.42 29.24,-27.08 46.25,-41.81 50.72,-44.16 10.9,-5.52 18.64,-10.77 22.85,-15.17l-0.17 -0.15c2.98,-7.08 5.37,-11.79 7.14,-14.73l14.02 -16.49 14.93 -17.39c4.48,-5.59 15.22,-14.71 32.21,-26.8 1.79,-10.89 2.68,-18.26 2.68,-22.38l3.57 -43.27c0.3,-13.86 3.89,-27.41 10.44,-40.66l13.14 -25.92 18.19 -47.41c8.06,-21.2 20.59,-43.01 37.59,-64.8l13.13 -17.37c12.82,-17.08 22.96,-28.27 30.71,-33.57l16.4 -12.96 17.62 -25.93 0.88 -1.76 14.63 -9.43 14.01 -10.3c16.41,-12.07 39.07,-18.26 68.91,-18.26 42.34,0 67.71,19.14 75.77,57.73l2.68 15.61 5.96 24.14c0.59,3.53 0.89,8.25 0.89,13.84 0,5.3 -1.78,11.18 -5.05,18.26 -3.01,5.3 -5.37,10.6 -7.17,16.49l-7.76 27.4c-10.44,37.11 -35.49,77.17 -75.46,120.17l-18.21 20.03 -27.14 32.67 -6.86 7.08 -27.74 26.51 -13.71 12.95c-9.56,9.43 -14.32,18.86 -14.93,28.56 -2.39,36.82 12.83,60.1 45.34,69.21l11.33 3.55c16.11,5.01 25.07,7.66 26.85,7.66 0.61,0 6.27,-0.6 16.71,-1.78l25.06 -2.64c2.97,0 8.05,-1.17 15.81,-4.14 15.52,-5.3 24.16,-7.95 25.05,-8.53l3.59 -0.88c6.85,-1.78 11.92,-3.84 14.91,-6.18l9.55 -8.55 28.03 -13.83c1.2,-0.6 2.98,-2.66 5.95,-5.9l0.24 0.19 -0.21 -0.19c4.75,-5.88 8.65,-10.89 11.33,-14.73l14.9 -23.57 26.25 -25.02c0.6,-1.19 10.15,-11.48 28.06,-30.93 4.16,-4.72 15.79,-16.49 34.89,-35.34 13.43,-13.83 24.76,-26.2 34,-36.52 11.94,-13.84 18.79,-21.79 21.18,-24.15l19.99 -17.96 47.12 -51.25 16.7 -14.73c2.39,-1.47 6.28,-5.89 11.35,-12.96 39.96,-17.37 63.23,-26.19 69.51,-26.19 29.53,0 44.43,18.85 44.43,56.83 0,18.25 -0.88,32.1 -2.39,41.24l-9.23 41.51 -2.69 27.7 -9.56 20.6c-1.77,4.71 -2.68,12.66 -2.68,24.16l0 0.88c0,7.66 3.89,11.48 11.33,11.48 4.19,0 14.34,-7.96 30.74,-24.15 1.18,-1.16 5.66,-5.6 14.01,-12.95 6.87,-6.48 13.42,-13.56 20,-20.93l13.11 -14.71 28.93 -28.57 21.77 -21.5c11.65,-11.48 18.21,-17.96 19.41,-19.74l6.85 -7.64c14.62,-19.16 33.72,-38.29 56.96,-57.72l26.26 -21.8c13.43,-10.92 22.07,-17.38 26.25,-19.74l24.46 -7.66c5.37,-1.75 9.56,-2.65 13.13,-2.65 34.31,-1.75 51.6,22.69 51.6,73.34 0,5.29 -0.89,13.25 -2.69,24.15 -1.18,12.08 -2.38,21.21 -3.57,26.8 -8.35,69.2 -17.9,117.21 -28.64,144.32 -4.16,10.29 -6.26,19.13 -6.26,25.9 0,7.95 2.39,12.38 7.15,12.96 1.2,0 2.39,-0.58 3.59,-1.75l8.06 -9.72 14.01 -12.98 14.92 -22.68 9.54 -5.88c2.38,-1.76 7.16,-6.18 14.01,-12.96 12.83,-14.13 31.62,-29.16 56.08,-45.35 3.89,-2.66 6.87,-4.72 8.65,-5.89l30.73 -22.69c3.28,-2.33 14.01,-5.3 31.33,-8.54 4.75,-1.16 8.64,-2.06 12.22,-2.64 8.05,-1.75 15.81,-2.66 22.68,-2.66 3.57,0 9.54,3.24 17.59,9.44l14.01 11.48c16.72,13.25 29.24,27.99 37.58,44.19l5.99 12.95c3.57,7.66 9.82,19.13 19.38,34.74 6.26,11.2 12.83,22.67 19.09,34.77 18.2,37.1 38.77,55.66 62.04,55.66 5.33,0 10.95,-2.61 17.46,-8.12l-0.14 -0.13c2.97,-7.08 5.37,-11.79 7.14,-14.73l14.01 -16.49 14.93 -17.39c4.48,-5.59 15.22,-14.71 32.21,-26.8 1.8,-10.89 2.68,-18.26 2.68,-22.38l3.58 -43.27c0.3,-13.86 3.89,-27.41 10.44,-40.66l13.12 -25.92 18.21 -47.41c8.05,-21.2 20.59,-43.01 37.59,-64.8l13.12 -17.37c12.83,-17.08 22.96,-28.27 30.72,-33.57l16.39 -12.96 17.62 -25.93 0.88 -1.76 14.63 -9.43 14.01 -10.3c16.41,-12.07 39.07,-18.26 68.91,-18.26 42.35,0 67.72,19.14 75.77,57.73l2.69 15.61 5.95 24.14c0.59,3.53 0.89,8.25 0.89,13.84 0,5.3 -1.77,11.18 -5.05,18.26 -3,5.3 -5.37,10.6 -7.16,16.49l-7.77 27.4c-10.44,37.11 -35.48,77.17 -75.46,120.17l-18.2 20.03 -27.14 32.67 -6.87 7.08 -27.74 26.51 -13.71 12.95c-9.56,9.43 -14.31,18.86 -14.93,28.56 -2.39,36.82 12.83,60.1 45.34,69.21l11.33 3.55c16.11,5.01 25.07,7.66 26.85,7.66 0.61,0 6.28,-0.6 16.72,-1.78l25.05 -2.64c2.98,0 8.06,-1.17 15.81,-4.14 15.52,-5.3 24.17,-7.95 25.05,-8.53l3.6 -0.88c6.85,-1.78 11.92,-3.84 14.9,-6.18l9.55 -8.55 28.03 -13.83c1.21,-0.6 2.98,-2.66 5.96,-5.9l0.24 0.19 -0.21 -0.19zm20.06 47.99c-5.35,-10.01 -8.95,-20.62 -11.12,-31.79 -0.66,-3.72 -1.87,-7.06 -3.57,-9.96 1.69,2.92 2.79,6.24 3.27,9.96 1.71,10.62 5.58,21.18 11.42,31.79zm-445.56 -13.03c-2.26,-6.07 -4,-12.31 -5.25,-18.76 1.04,6.3 2.79,12.56 5.25,18.76zm264.1 -316.51c-9.24,0 -24.75,14.72 -46.82,44.46l-3.27 5.29c-20.59,28.88 -31.63,53.31 -32.84,73.06 -0.59,8.24 2.98,12.06 10.45,11.48 7.46,-0.58 14.01,-5.3 19.99,-14.13l7.77 -15.03 42.04 -48.59c9.85,-12.38 14.63,-25.04 14.63,-38.29 0,-12.07 -3.89,-18.25 -11.95,-18.25zm-1806.15 317.56c-2.46,-6.37 -4.34,-12.98 -5.65,-19.81 1.1,6.66 2.98,13.27 5.65,19.81zm263.7 -317.56c-9.24,0 -24.76,14.72 -46.82,44.46l-3.28 5.29c-20.59,28.88 -31.63,53.31 -32.82,73.06 -0.6,8.24 2.97,12.06 10.44,11.48 7.45,-0.58 14.01,-5.3 19.99,-14.13l7.76 -15.03 42.04 -48.59c9.85,-12.38 14.63,-25.04 14.63,-38.29 0,-12.07 -3.89,-18.25 -11.94,-18.25zm-827.4 352.42c-1.33,-4.42 -3.56,-8.49 -6.6,-12.26 -9.26,-12.67 -15.22,-26.8 -18.2,-42.41 2.39,14.42 8.35,28.86 18.18,43.28 3.1,3.93 5.3,7.73 6.62,11.39zm-541.76 -34.86c-2.46,-6.37 -4.33,-12.98 -5.64,-19.81 1.1,6.66 2.97,13.27 5.64,19.81zm363.94 -687.18c7.75,-13.25 13.72,-22.98 17.59,-29.16 4.48,-7.38 6.86,-14.42 6.86,-21.21 0,-8.23 -2.08,-12.37 -5.96,-12.95 -8.37,-1.17 -16.71,14.73 -25.36,47.41 -5.67,20.91 -21.48,53.01 -46.82,96.91 -42.36,70.66 -73.69,148.14 -93.96,232.35 -3.6,16.19 -5.37,25.63 -5.99,28.57 -1.77,4.43 -2.69,8.83 -2.69,12.96 0,5.01 0.62,7.67 1.81,7.67 1.18,0 2.97,-2.37 5.96,-7.38l7.75 -15.31 19.39 -28.26c4.18,-7.08 8.67,-17.38 14.03,-31.22 5.67,-16.2 9.83,-25.92 12.22,-29.16l21.78 -40.63 29.82 -75.99 5.07 -10.32 9.56 -37.1 15.81 -37.98c4.17,-10.32 8.35,-26.83 13.13,-49.2zm-590.91 495.08c-8.05,2.35 -17.9,12.37 -28.93,30.04 -25.06,39.45 -42.66,60.08 -52.49,61.85l-22.09 4.41c-8.06,1.19 -19.38,19.73 -34,55.96 -14.62,35.94 -22.08,63.61 -22.08,83.34 0,32.69 17.01,48.89 50.71,48.89 52.21,0 94.25,-23.56 125.58,-70.95l11.33 -17.39c1.21,-1.78 5.99,-6.18 14.04,-12.97 14.02,-11.47 25.05,-32.97 33.1,-64.19l14.02 -50.08 -11.92 -40.05c-9.56,-17.1 -21.48,-25.92 -36.11,-25.92l-41.16 -2.94zm-2575.72 -48.39c-24.51,118.15 -62.83,98.42 -214.6,92.22 -713.33,-29.14 -985.09,-671.38 -630.72,-1050.03 329.44,-352.03 1130.44,-77.93 958.45,391.47 -61.17,166.93 -193.72,149.04 -329.27,226.51 424.08,33.37 519.99,-453.59 253.22,-675.84 -238.38,-198.61 -637.47,-247.92 -888.4,-10.43 -254.1,240.51 -292.49,575.13 -43.59,867.64 191.95,225.58 484.26,316.92 896.41,306.18 75.2,119.44 97.63,230.58 252.32,257.13 180.29,30.94 277.45,-65.16 230.99,-239.02 -59.27,110.23 -32.64,200.34 -195.77,185.4 -114.92,-10.53 -162.02,-94.91 -204.13,-197.92 146.61,-114.32 214.03,-12.78 591.59,-314.67 388.38,-310.54 292.97,-214.12 582.44,-287.43 -272.6,-162.36 -711.89,269.48 -913.74,389.65 -40.68,24.22 -102.48,58.45 -144.06,74.94l-141.63 14.86c38.78,-139.17 200.19,-104.76 429.54,-282.31l118.25 -128.44c-163.47,87.15 -308.27,213.13 -522.91,260.32 58.07,-192.08 259.83,-362.51 440.43,-435.25 289.27,-116.5 466.47,-45.17 718.86,33.08 -140.79,-184.39 -529.99,-170.05 -762.59,-77.91 -336.62,133.33 -294.82,243.31 -479.59,499.42 -255.96,46.72 -489.34,-58.11 -569.03,-256.81 -164.51,-410.16 270.61,-453.51 303.74,-470.63 -362.98,-153.24 -612.34,514.63 -142.74,741.24 58.19,28.08 123.33,44.19 195.15,53.64l211.38 32.99zm15435.93 -339.83c-142.82,-81.62 -286.13,-63.12 -337.39,-251.09 -50.68,-185.84 51.5,-328.58 144.09,-396.82 617.33,-455 1331.06,309.28 792.06,842.85 -119.58,118.35 -760.58,406.75 -814.9,144.89l43.94 -13.03c6.9,-1.43 16.29,-3.77 24.3,-5.17 22.08,-3.86 28.97,-3.69 54.7,-6.81 887.68,-107.26 517.83,-962.01 140.85,-802.86 40.23,20.78 466.79,64.1 303.74,470.63 -79.69,198.7 -313.07,303.53 -569.03,256.81 -184.77,-256.11 -142.97,-366.09 -479.59,-499.42 -232.6,-92.14 -621.8,-106.48 -762.6,77.91 252.4,-78.25 429.6,-149.58 718.87,-33.08 180.6,72.74 382.36,243.17 440.42,435.25 -218.29,-47.99 -355.95,-171.32 -522.91,-260.32 132.07,245.22 504.34,254.76 547.8,410.75 -6,2.19 -15.37,3.66 -18.79,3.92l-144.43 -28.54c-301.04,-134.24 -738.93,-631.89 -1036.21,-454.83 291.24,73.76 199.39,-18.85 582.44,287.43 376.27,300.85 444.96,200.34 591.59,314.67 -42.79,104.69 -97.99,202.73 -226.49,198.73 -149.08,-4.63 -114.05,-75.8 -173.41,-186.21 -46.46,173.86 50.7,269.96 230.98,239.02 154.7,-26.55 177.13,-137.69 252.33,-257.13 425.44,11.1 722.25,-88.34 910.38,-323.15 526.5,-657.16 -391.82,-1353.88 -962.58,-826.07 -249.41,230.63 -141.61,694.04 269.84,661.67zm-14312.75 -4774.34c-78.07,13.51 -35.46,3.37 -76.14,24.32 7.97,6.49 27.54,29.28 33.83,34.69 88.29,75.95 132.38,53.65 158.77,182.59l0.13 2385.46c-39.9,198.33 -107.05,76.22 -187.16,218.14 127.69,54.93 858.58,49.02 956.51,-5.97 -43.88,-88.9 -96.12,-72.73 -176.96,-107.71 -77.18,-366.84 -30.14,-1319.32 -30.14,-1756.69 0.01,-716.88 50.34,-996.28 -559.74,-983.66 -41.25,0.86 -78.76,1.85 -119.1,8.83zm-792.05 929.34c346.14,-110.38 329.21,571.28 322.74,812.03 -7.52,280.27 43.87,880.96 -206.29,963.05 -318.17,104.41 -326.83,-566.89 -316.99,-809.75 10.57,-260.82 -26.45,-892.95 200.54,-965.33zm-749.43 1149.31c59.73,477.13 463.84,923.61 1039.04,765.12 498.3,-137.28 658.31,-763.78 583.52,-1281.78 -174.99,-1211.98 -1821.39,-1071.6 -1622.56,516.66zm2759.21 -551.91c0,-310.79 140.57,-787.84 331.28,-554.75 115.47,141.15 -13.17,441.99 234.72,539.03 64.03,25.06 50.22,14.64 105.91,25.82 10.72,2.16 48.16,8.46 56.08,9.92 7.1,1.32 22.21,13.49 27.31,5.28 5.08,-8.17 18.37,2.49 27.98,5.43 -40.27,618.02 34.99,505.57 48.91,797.14 -614.97,512.47 -832.19,-387.36 -832.19,-827.87zm1495.71 -598.75c184.96,-56.38 227.7,135.78 250.19,304.17 23.7,177.37 -24.68,330.47 -177.98,352.68 -420.32,60.9 -285.61,-591.82 -72.21,-656.85zm698.86 1301.2c-52.44,27.4 -440.4,656.32 -796.1,21.9 -92.89,-165.69 -106.82,-380.27 71.27,-459.57 206.43,-91.92 269.62,8.69 514.28,-165.6 343.53,-244.73 79.63,-694.2 -182.7,-815.62 -417.7,-193.36 -707.97,142.31 -893.23,367.79 -417.35,-853.95 -1410.62,-337.46 -1418.93,593.29 -8.87,994.39 724.2,1522.32 1401.11,724.26 129.8,128.77 102.45,212.46 314.75,315.24 619.99,300.18 1076.38,-399.51 989.55,-581.69zm13890.12 -89.21c1.03,515.14 -408.5,402.44 -384.87,127.02 30.01,-349.62 384.04,-545.37 384.81,-157.68l0.06 30.66zm-1803.54 -1967.93c-102.95,-191.48 -478.16,-244.65 -684.48,-156.6 54.51,108.3 69.57,60.67 187.93,121.55 41.53,515.89 16.56,1442.82 17.32,2002.98 0.16,126.18 35.7,496.41 -50.31,586.21 -83.75,87.43 -86.17,-1.69 -155.36,125.78 182.88,56.25 1659.74,-11.66 1844.91,5.65 415.54,38.84 466.19,-223.1 619.49,-191.75 154.5,92.02 149.41,242.15 441.64,200.16 167.16,-24.03 327.1,-157.75 338.66,-319.3 -165.26,-1.54 -172.71,145.28 -210.53,-95.76l-6.29 -1017.69c-10.27,-1093.02 -1630.95,-601.9 -1404.37,48.87 62.14,178.5 365.76,226.9 466.48,88.4 149.18,-205.12 -54.92,-361.25 -53.91,-467.43 27.16,-145.35 216.88,-143.04 304.19,-115.21 102.58,32.71 168.47,151.15 168.76,263.05 1.53,603.34 -1270.26,669.2 -865.86,1499.62 -152.32,-81.05 -100.65,-633.9 -100.58,-825.23 0.11,-296.41 0.01,-592.8 0.01,-889.2 0,-261.7 46.72,-631.27 -68.24,-846.01 -115.06,-214.89 -245.81,-203.86 -486.76,-199.04 -40.71,0.81 -80.08,1.94 -119.89,8.73 -80.23,13.71 -41.25,5.91 -78.2,24.49 121.45,193.39 206.6,-31.16 206.6,459.91l0 1931.7c0,172.18 16.72,302.74 -131.19,340.63 -187.44,-112.57 -100.02,-616.51 -100.02,-831.21 0,-346.7 53.36,-1505.21 -80,-1753.3zm-6932.31 2455.01l-154.84 -498.75c-330.96,14.78 -546.58,186.58 -994.61,162.76 -966.89,-51.42 -1666,-820.55 -1339.15,-1870.94 234.17,-752.58 1021.48,-1057.43 1831.44,-907.23 155.99,28.92 221.71,128.4 261.49,290.8 127.22,519.49 -373.71,653.84 -383.59,312.6l98.27 -60.93c61.92,-43.11 19.56,9.92 70.87,-61.72 -67.17,-246.75 -259.16,-172.42 -377.39,-62.76 -135.21,241.07 200.94,517.95 507.83,417.7 240.32,-78.5 214.15,-408.65 176.79,-692.22l139.65 -40.48 157.66 -480.77c-207.2,-186.78 -724.38,-220.2 -1049.58,-220.22 -438,-0.04 -700.84,61.78 -1065.95,209.8 -323.26,131.04 -573.35,323.9 -745.22,521.99 -106.64,122.91 -178.01,229.93 -253.79,392.94l-155.59 432.04c-1.98,-4.73 -9.49,13.08 -27.24,22.82l-99.02 -288.84c-217.66,87.41 -178.16,259.57 -111.81,462.57 -185.98,87.44 -249.71,43.11 -310.48,271.63 -55.73,209.55 2.9,316.33 129.56,398.26 113.37,-174.37 51.82,-278.19 403.68,-239.41 36.85,730.54 412.63,1277.23 1082.76,1566.68 381.51,164.81 667.6,204.02 1122.35,203.98 313.64,-0.03 901.54,-61.56 1085.91,-242.3 5.04,5.84 10.55,14.8 13.32,18.86 351.7,516.14 680.62,6.51 857.02,20.69 137.38,57.95 126.23,154.47 294.27,193.42 83.13,19.25 139.45,10.07 215.3,-5.66 21.47,-4.45 68.47,-17.88 83.72,-18.17 88.09,-1.69 -13.83,-5.32 56.38,9.52 166.78,35.22 705.24,69.75 873.91,-0.52 -43.03,-141.57 -78.49,-29.04 -132.3,-175.76 -28.27,-77.09 -18.9,-170.58 -18.63,-252.49 0.61,-184.32 0.94,-368.61 0.66,-552.95 -0.47,-305.13 -29.18,-797.32 352.57,-722.94 129.94,172.59 84,641.71 84,906.93 0,501.22 62.91,544.2 -125.34,746.77 -55.38,59.61 5.44,-46.01 -45.9,62.52 158.82,26.44 1507.16,36.15 1619.4,-12.08 -89.5,-294.58 -149.9,337.11 -152.45,-981.18 -0.58,-300.79 -17.21,-827.22 354.32,-719.59 158.47,138.32 82.8,654.6 82.81,903.56 0.01,1009.74 -39.2,530.26 -157.33,797.21 142.48,60.29 680.16,23.89 871.77,23.89 -1.74,-242.21 -148.66,52.66 -162.86,-358.95 -5.51,-159.84 -3.42,-321.05 20.79,-479.03 30.79,1004.49 1155.31,1169.23 1460.48,205.63 -233.37,15.82 -181.23,305.23 -479.89,292.23 -187.43,-8.16 -329.27,-186.45 -393.47,-342.18 -234.28,-568.37 497.11,-307.24 726,-666.12 278.52,-436.69 -522.96,-1179.54 -1091.26,-464.4 -151.42,190.54 -136.09,315.14 -236.76,514.9 -58.54,-1048.89 -699.71,-804.16 -963.67,-507.82 -4.81,-5.39 -9.71,-14.28 -11.99,-18.04 -94.08,-154.72 -59.21,-171.64 -296.55,-173.49 -135.31,-1.05 -360.06,-34 -459.19,41.68 66.74,157.31 179.5,3.82 183.6,366.47 1.95,173.19 -1.17,349.13 -1.17,522.73 0,315.79 60.94,861.72 -97.9,948.13 -205.41,-136.99 -25.3,-1008.61 -117.77,-1509.75 -84.16,-456.15 -474.82,-579.07 -938.09,-178.4 -118.4,-146.17 -38.24,-189.47 -308.44,-191.02 -131.5,-0.74 -356.08,-35.43 -453.85,41.84 69.29,158.06 157.21,-21.93 181.27,273.38l1.2 1290.37c-53.86,91.2 21.82,10.88 -85.39,77.36 -28.3,17.54 -53.34,22.99 -74.17,31.76 -264.44,-371.67 270.98,-1621.46 -490.17,-1776.01 -925.79,-187.98 -1408.84,885.52 -590.65,834.98 310.04,-379.34 -9.74,-338.19 35.12,-592.9 329.61,-286.63 741.15,189.94 151.15,670.04 -586.78,477.48 -546.18,243.29 -633.87,904.58zm-12483.18 -310.92c-570.68,0 -465.66,-47.91 -463.12,-359.96l-0.42 -2416.28c329.28,8.13 615.89,106.79 669.73,403.59 78.94,435.25 -394.65,623.18 -411.26,264.79 107.96,-79.37 90.66,-6.3 162.71,-122.65 -62.57,-188.08 -343.16,-186.06 -381.76,42.23 -34.19,202.21 165.91,344.87 361.98,343.6 480.78,-3.15 363.43,-628.14 258.25,-941.7 842.05,-45.06 1509.97,504.91 1419.25,1476.63 -78.9,845.26 -716.9,1309.75 -1615.36,1309.75zm-1174.48 -3265.65l-18.65 1501.96c-193.82,-65.09 -136.69,-180.47 -235.38,-319.91 -173.25,109.01 -193.79,248.62 -91.36,435.68 -6.16,4.65 -16.92,2.24 -20.13,11.51l-41.09 21.67c-318.96,151.16 -313.86,345.25 -168.67,661.06 209.31,-127.85 22.93,-317.43 566.49,-230.95l0.38 1672.47c709.14,175.28 1856.96,54 2449.11,-211.21 607.35,-272.02 1087.8,-818.81 1089.34,-1678.79 1.68,-932.54 -322.62,-1417.33 -1043.15,-1725.97 -641.23,-274.66 -1770.5,-296.23 -2486.89,-137.52zm19178.76 2456.67c-30.11,-151.4 -23.53,-342.34 60.87,-480.73 89.26,-146.37 248.96,-140.03 318.77,9.1 162.32,346.82 6.7,712.75 -379.64,471.63z"/>
  <path class="fil1" d="M15656.86 4248.76c87.06,-21.8 151.18,-56.92 204.88,-97.62 -42.9,-112.3 -110.71,-108.23 -177.7,-205.86 168.21,-339.2 670.65,7.35 469.77,459.86 -163.18,367.56 -565.65,369.12 -771.5,-4.65 -517.15,-939.02 400.46,-1316.72 1079.31,-789.6 346.84,269.31 318.43,1282.37 -467.37,1709.64 -625.61,340.15 -1377.24,43.16 -1615.01,-757.65 -202.09,-680.65 -112.18,-1609.94 130.64,-2240.64 239.06,-620.97 750.34,-1235.34 1526.11,-683.04 157.03,111.79 548.85,491.22 630.91,666.26 272.47,581.23 -934.12,1427.72 -1263.71,569.68 -238.18,-620.05 470.43,-703.7 492.41,-695.07 70.63,64.84 189.15,216.7 138.71,349.62 -54.79,109.23 -87.26,71.64 -280.8,157.13 8.09,205.7 127,358.25 351.42,291.82 486.66,-144.05 79.19,-1186.01 -602.77,-994.23 -297.72,83.74 -502.75,428.93 -596.88,757.69 -113.31,395.78 -110.32,835.77 -16.77,1226.2 88.39,368.94 208.26,620.68 504.53,850.68 797.02,618.79 1305.63,-731.97 677,-1128.85 -490.32,-309.58 -670.53,255.57 -413.18,558.63zm-517.91 -3193.44c-1162.93,199.9 -2089.1,1346.19 -1882.75,2750.75 170.91,1163.29 1217.71,2247.41 2613.79,2006.44 1142.71,-197.24 2079.8,-1348.2 1880.03,-2736.84 -168.92,-1174.2 -1213.06,-2260.66 -2611.07,-2020.35z"/>
 </g>
</svg>
